<svg width="345" height="191" viewBox="0 0 345 191" fill="none" xmlns="http://www.w3.org/2000/svg">
<circle opacity="0.5" cx="249.073" cy="95.073" r="95.073" fill="#382BCF"/>
<circle opacity="0.5" cx="95.073" cy="95.073" r="95.073" fill="#AE2BCF"/>
<mask id="path-3-outside-1_2013_175" maskUnits="userSpaceOnUse" x="42" y="56" width="259" height="64" fill="black">
<rect fill="white" x="42" y="56" width="259" height="64"/>
<path d="M93.4808 60.1756C91.6405 64.8274 90.1325 70.0414 88.9568 75.8178H87.4233C87.73 74.3354 87.8833 72.8785 87.8833 71.4472C87.8833 68.4312 86.9887 65.952 85.1996 64.0095C83.4105 62.067 80.6756 61.0957 76.9951 61.0957C73.7747 61.0957 71.1676 61.9136 69.174 63.5494C67.2315 65.1852 66.2603 67.6133 66.2603 70.8338C66.2603 73.3386 67.027 75.6389 68.5606 77.7347C70.1453 79.8306 72.4967 82.3098 75.6149 85.1725C77.813 87.1661 79.5766 88.9041 80.9057 90.3865C82.2347 91.869 83.3593 93.5047 84.2795 95.2939C85.1996 97.083 85.6597 99 85.6597 101.045C85.6597 104.367 84.6884 107.179 82.7459 109.479C80.8545 111.728 78.4264 113.39 75.4616 114.463C72.4967 115.537 69.4296 116.073 66.2603 116.073C63.551 116.073 61.3785 115.741 59.7427 115.077C58.158 114.412 56.7011 113.569 55.3721 112.546C54.4008 111.78 53.4807 111.396 52.6117 111.396C51.9983 111.396 51.4871 111.703 51.0781 112.316C50.6692 112.93 50.1324 114.003 49.4679 115.537H47.9344C48.7522 113.594 49.5446 111.268 50.3114 108.559C51.1292 105.799 52.0749 101.99 53.1484 97.1341H54.682C54.2219 99.5367 53.9919 101.428 53.9919 102.808C53.9919 106.54 55.0142 109.428 57.059 111.473C59.1037 113.518 62.2475 114.54 66.4903 114.54C69.9663 114.54 72.7012 113.748 74.6948 112.163C76.7395 110.578 77.7619 108.176 77.7619 104.955C77.7619 103.013 77.3785 101.224 76.6117 99.5878C75.845 97.952 74.8993 96.5207 73.7747 95.2939C72.7012 94.0159 71.1932 92.4313 69.2507 90.5399C67.206 88.5974 65.5702 86.936 64.3433 85.5558C63.1676 84.1757 62.1452 82.5654 61.2762 80.7252C60.4583 78.8849 60.0494 76.8402 60.0494 74.591C60.0494 71.4216 60.8417 68.7124 62.4264 66.4632C64.0622 64.2139 66.158 62.527 68.7139 61.4024C71.321 60.2267 74.0558 59.6389 76.9184 59.6389C79.0143 59.6389 80.829 59.8945 82.3625 60.4056C83.8961 60.9168 85.4041 61.7347 86.8865 62.8593C88.1133 63.7794 88.9568 64.2395 89.4169 64.2395C89.8258 64.2395 90.2092 63.9328 90.567 63.3194C90.976 62.6548 91.436 61.6069 91.9472 60.1756H93.4808ZM147.44 60.0222C148.564 60.0222 149.408 60.3801 149.97 61.0957C150.583 61.7603 150.89 62.6037 150.89 63.6261C150.89 65.6708 149.714 67.5622 147.363 69.3002C145.88 70.1692 144.321 70.8082 142.686 71.2172C141.05 71.575 139.082 71.7539 136.781 71.7539C134.839 71.7539 132.666 71.6261 130.264 71.3705L120.219 106.105C119.759 107.639 119.529 108.917 119.529 109.939C119.529 111.217 120.015 112.112 120.986 112.623C121.957 113.134 123.618 113.415 125.97 113.466L125.663 115C123.005 114.847 119.197 114.77 114.238 114.77C109.229 114.77 105.497 114.847 103.043 115L103.35 113.466C105.548 113.364 107.235 113.109 108.411 112.7C109.586 112.291 110.507 111.601 111.171 110.629C111.887 109.658 112.526 108.15 113.088 106.105L123.44 70.3737C118.941 69.7603 115.721 69.4536 113.778 69.4536C110.507 69.4536 108.104 69.8881 106.57 70.7571C106.979 71.3194 107.312 72.0095 107.567 72.8274C107.823 73.6453 107.951 74.4376 107.951 75.2044C107.951 76.3801 107.618 77.428 106.954 78.3482C106.289 79.2172 105.344 79.6517 104.117 79.6517C103.043 79.6517 102.2 79.3194 101.586 78.6549C101.024 77.9392 100.743 76.9935 100.743 75.8178C100.743 73.2108 102.072 71.2172 104.73 69.837C106.928 68.6612 109.816 68.0734 113.395 68.0734C116.308 68.0734 120.372 68.4312 125.586 69.1469C127.478 69.4025 129.42 69.6581 131.414 69.9136C133.459 70.1181 135.35 70.2204 137.088 70.2204C138.979 70.2204 140.564 70.0926 141.842 69.837C143.12 69.5814 144.372 69.1469 145.599 68.5334C144.321 67.2555 143.682 65.8242 143.682 64.2395C143.682 63.1149 143.989 62.1437 144.602 61.3258C145.267 60.4568 146.213 60.0222 147.44 60.0222ZM179.684 108.559C179.889 110.246 180.349 111.473 181.064 112.24C181.78 113.006 182.572 113.415 183.441 113.466L183.058 115C181.013 114.847 178.227 114.77 174.7 114.77C170.56 114.77 167.493 114.847 165.499 115L165.882 113.466C168.285 113.364 169.997 112.981 171.02 112.316C172.042 111.652 172.553 110.399 172.553 108.559C172.553 107.895 172.528 107.383 172.477 107.026L171.326 97.5175H151.85L146.636 104.035C144.643 106.54 143.646 108.585 143.646 110.169C143.646 112.061 145.179 113.16 148.246 113.466V115C146.713 114.847 144.387 114.77 141.269 114.77C138.151 114.77 135.927 114.847 134.598 115V113.466C136.847 112.853 139.633 110.476 142.956 106.335L173.78 67.8434H174.93L179.684 108.559ZM171.173 95.984L168.796 76.5079L153.077 95.984H171.173ZM238.867 67.3066C240.4 67.3066 241.525 67.69 242.24 68.4568C243.007 69.2235 243.391 70.2204 243.391 71.4472C243.391 72.5718 243.007 73.7475 242.24 74.9744C241.525 76.1501 240.426 76.7379 238.943 76.7379C237.921 76.7379 237.154 76.4568 236.643 75.8945C236.183 75.2811 235.953 74.5399 235.953 73.6708C235.953 72.9552 236.183 72.1628 236.643 71.2938C237.103 70.3737 237.691 69.5814 238.407 68.9168H238.177C237.563 68.9168 237.052 68.9935 236.643 69.1469C236.285 69.3002 235.876 69.5814 235.416 69.9903C234.649 70.706 234.01 71.6517 233.499 72.8274C232.988 73.952 232.349 75.5622 231.582 77.6581C230.611 80.2651 229.716 82.3865 228.899 84.0223C228.132 85.6581 227.033 87.115 225.601 88.3929C224.221 89.6709 222.458 90.4632 220.311 90.7699C223.224 91.3833 225.371 92.5591 226.752 94.2971C228.132 96.0351 228.72 98.6933 228.515 102.272L228.362 108.866C228.311 109.786 228.541 110.527 229.052 111.089C229.563 111.601 230.177 111.856 230.892 111.856C232.17 111.856 233.244 111.396 234.113 110.476C235.033 109.505 235.851 107.971 236.566 105.875L237.87 101.965H239.403L237.41 107.869C236.439 110.681 235.186 112.751 233.653 114.08C232.119 115.409 230.253 116.073 228.055 116.073C225.908 116.073 224.272 115.46 223.148 114.233C222.074 112.955 221.538 111.141 221.538 108.789C221.538 108.073 221.563 107.537 221.614 107.179L222.074 101.505C222.125 101.045 222.151 100.406 222.151 99.5878C222.151 97.5431 221.844 95.8051 221.231 94.3738C220.669 92.8913 219.876 91.8945 218.854 91.3833C216.605 91.9456 214.969 92.2268 213.946 92.2268C212.311 92.2268 211.493 91.7412 211.493 90.7699C211.493 89.7987 212.285 89.313 213.87 89.313C215.046 89.313 216.656 89.5686 218.7 90.0798C220.95 89.8753 222.764 89.1852 224.145 88.0095C225.576 86.7827 226.675 85.3769 227.442 83.7923C228.208 82.1565 229.026 80.0606 229.895 77.5047C230.611 75.3577 231.276 73.6197 231.889 72.2906C232.554 70.9616 233.346 69.8881 234.266 69.0702C235.748 67.8945 237.282 67.3066 238.867 67.3066ZM205.359 106.872C204.899 108.815 204.668 110.067 204.668 110.629C204.668 111.703 205.026 112.419 205.742 112.776C206.509 113.134 207.889 113.364 209.883 113.466L209.576 115C207.224 114.847 203.978 114.77 199.838 114.77C195.595 114.77 192.349 114.847 190.1 115L190.483 113.466C192.272 113.364 193.601 113.16 194.47 112.853C195.391 112.546 196.106 111.958 196.617 111.089C197.18 110.169 197.716 108.764 198.228 106.872L206.279 76.5079C206.688 74.7699 206.892 73.543 206.892 72.8274C206.892 71.7028 206.509 70.9616 205.742 70.6037C205.026 70.2459 203.697 70.0159 201.755 69.9136L202.138 68.3801C204.234 68.5334 207.48 68.6101 211.876 68.6101C215.966 68.6101 219.237 68.5334 221.691 68.3801L221.308 69.9136C219.416 70.0159 218.01 70.2204 217.09 70.5271C216.221 70.8338 215.506 71.4216 214.943 72.2906C214.432 73.1597 213.921 74.5654 213.41 76.5079L205.359 106.872ZM278.419 68.6101C286.138 68.6101 291.684 68.5334 295.058 68.3801C294.087 70.7827 293.167 73.543 292.298 76.6613C291.531 79.6261 291.096 81.4664 290.994 82.182H289.231C289.691 79.9328 289.921 78.067 289.921 76.5846C289.921 74.2331 289.282 72.5718 288.004 71.6005C286.777 70.6293 284.681 70.1437 281.716 70.1437H276.119C274.278 70.1437 272.898 70.297 271.978 70.6037C271.058 70.8593 270.317 71.4216 269.754 72.2906C269.243 73.1597 268.732 74.5654 268.221 76.5079L264.387 90.7699H271.518C273.818 90.7699 275.582 89.9776 276.809 88.3929C278.087 86.7571 279.211 84.6868 280.183 82.182H281.946C280.719 85.8114 279.799 88.9297 279.186 91.5367L278.726 93.2236C277.959 96.1373 277.422 98.6933 277.116 100.891H275.352C275.403 100.585 275.48 100.048 275.582 99.2811C275.684 98.5143 275.735 97.8498 275.735 97.2875C275.735 95.754 275.326 94.5527 274.509 93.6837C273.742 92.7635 272.336 92.3035 270.291 92.3035H263.927L260.016 106.872C259.556 108.815 259.326 110.042 259.326 110.553C259.326 111.677 259.684 112.419 260.4 112.776C261.167 113.083 262.547 113.236 264.54 113.236H270.138C272.949 113.236 275.275 112.802 277.116 111.933C279.007 111.064 280.643 109.658 282.023 107.716C283.454 105.773 284.809 103.089 286.087 99.6645H287.85C286.93 102.374 286.317 104.47 286.01 105.952C285.448 107.843 284.809 110.859 284.093 115C280.515 114.847 274.509 114.77 266.074 114.77C256.617 114.77 249.461 114.847 244.604 115L244.988 113.466C246.828 113.364 248.208 113.16 249.128 112.853C250.048 112.546 250.764 111.958 251.275 111.089C251.838 110.22 252.374 108.815 252.885 106.872L261.09 76.5079C261.55 74.5654 261.78 73.313 261.78 72.7507C261.78 71.6772 261.397 70.9616 260.63 70.6037C259.914 70.2459 258.585 70.0159 256.643 69.9136L257.026 68.3801C261.831 68.5334 268.962 68.6101 278.419 68.6101Z"/>
</mask>
<path d="M93.4808 60.1756C91.6405 64.8274 90.1325 70.0414 88.9568 75.8178H87.4233C87.73 74.3354 87.8833 72.8785 87.8833 71.4472C87.8833 68.4312 86.9887 65.952 85.1996 64.0095C83.4105 62.067 80.6756 61.0957 76.9951 61.0957C73.7747 61.0957 71.1676 61.9136 69.174 63.5494C67.2315 65.1852 66.2603 67.6133 66.2603 70.8338C66.2603 73.3386 67.027 75.6389 68.5606 77.7347C70.1453 79.8306 72.4967 82.3098 75.6149 85.1725C77.813 87.1661 79.5766 88.9041 80.9057 90.3865C82.2347 91.869 83.3593 93.5047 84.2795 95.2939C85.1996 97.083 85.6597 99 85.6597 101.045C85.6597 104.367 84.6884 107.179 82.7459 109.479C80.8545 111.728 78.4264 113.39 75.4616 114.463C72.4967 115.537 69.4296 116.073 66.2603 116.073C63.551 116.073 61.3785 115.741 59.7427 115.077C58.158 114.412 56.7011 113.569 55.3721 112.546C54.4008 111.78 53.4807 111.396 52.6117 111.396C51.9983 111.396 51.4871 111.703 51.0781 112.316C50.6692 112.93 50.1324 114.003 49.4679 115.537H47.9344C48.7522 113.594 49.5446 111.268 50.3114 108.559C51.1292 105.799 52.0749 101.99 53.1484 97.1341H54.682C54.2219 99.5367 53.9919 101.428 53.9919 102.808C53.9919 106.54 55.0142 109.428 57.059 111.473C59.1037 113.518 62.2475 114.54 66.4903 114.54C69.9663 114.54 72.7012 113.748 74.6948 112.163C76.7395 110.578 77.7619 108.176 77.7619 104.955C77.7619 103.013 77.3785 101.224 76.6117 99.5878C75.845 97.952 74.8993 96.5207 73.7747 95.2939C72.7012 94.0159 71.1932 92.4313 69.2507 90.5399C67.206 88.5974 65.5702 86.936 64.3433 85.5558C63.1676 84.1757 62.1452 82.5654 61.2762 80.7252C60.4583 78.8849 60.0494 76.8402 60.0494 74.591C60.0494 71.4216 60.8417 68.7124 62.4264 66.4632C64.0622 64.2139 66.158 62.527 68.7139 61.4024C71.321 60.2267 74.0558 59.6389 76.9184 59.6389C79.0143 59.6389 80.829 59.8945 82.3625 60.4056C83.8961 60.9168 85.4041 61.7347 86.8865 62.8593C88.1133 63.7794 88.9568 64.2395 89.4169 64.2395C89.8258 64.2395 90.2092 63.9328 90.567 63.3194C90.976 62.6548 91.436 61.6069 91.9472 60.1756H93.4808ZM147.44 60.0222C148.564 60.0222 149.408 60.3801 149.97 61.0957C150.583 61.7603 150.89 62.6037 150.89 63.6261C150.89 65.6708 149.714 67.5622 147.363 69.3002C145.88 70.1692 144.321 70.8082 142.686 71.2172C141.05 71.575 139.082 71.7539 136.781 71.7539C134.839 71.7539 132.666 71.6261 130.264 71.3705L120.219 106.105C119.759 107.639 119.529 108.917 119.529 109.939C119.529 111.217 120.015 112.112 120.986 112.623C121.957 113.134 123.618 113.415 125.97 113.466L125.663 115C123.005 114.847 119.197 114.77 114.238 114.77C109.229 114.77 105.497 114.847 103.043 115L103.35 113.466C105.548 113.364 107.235 113.109 108.411 112.7C109.586 112.291 110.507 111.601 111.171 110.629C111.887 109.658 112.526 108.15 113.088 106.105L123.44 70.3737C118.941 69.7603 115.721 69.4536 113.778 69.4536C110.507 69.4536 108.104 69.8881 106.57 70.7571C106.979 71.3194 107.312 72.0095 107.567 72.8274C107.823 73.6453 107.951 74.4376 107.951 75.2044C107.951 76.3801 107.618 77.428 106.954 78.3482C106.289 79.2172 105.344 79.6517 104.117 79.6517C103.043 79.6517 102.2 79.3194 101.586 78.6549C101.024 77.9392 100.743 76.9935 100.743 75.8178C100.743 73.2108 102.072 71.2172 104.73 69.837C106.928 68.6612 109.816 68.0734 113.395 68.0734C116.308 68.0734 120.372 68.4312 125.586 69.1469C127.478 69.4025 129.42 69.6581 131.414 69.9136C133.459 70.1181 135.35 70.2204 137.088 70.2204C138.979 70.2204 140.564 70.0926 141.842 69.837C143.12 69.5814 144.372 69.1469 145.599 68.5334C144.321 67.2555 143.682 65.8242 143.682 64.2395C143.682 63.1149 143.989 62.1437 144.602 61.3258C145.267 60.4568 146.213 60.0222 147.44 60.0222ZM179.684 108.559C179.889 110.246 180.349 111.473 181.064 112.24C181.78 113.006 182.572 113.415 183.441 113.466L183.058 115C181.013 114.847 178.227 114.77 174.7 114.77C170.56 114.77 167.493 114.847 165.499 115L165.882 113.466C168.285 113.364 169.997 112.981 171.02 112.316C172.042 111.652 172.553 110.399 172.553 108.559C172.553 107.895 172.528 107.383 172.477 107.026L171.326 97.5175H151.85L146.636 104.035C144.643 106.54 143.646 108.585 143.646 110.169C143.646 112.061 145.179 113.16 148.246 113.466V115C146.713 114.847 144.387 114.77 141.269 114.77C138.151 114.77 135.927 114.847 134.598 115V113.466C136.847 112.853 139.633 110.476 142.956 106.335L173.78 67.8434H174.93L179.684 108.559ZM171.173 95.984L168.796 76.5079L153.077 95.984H171.173ZM238.867 67.3066C240.4 67.3066 241.525 67.69 242.24 68.4568C243.007 69.2235 243.391 70.2204 243.391 71.4472C243.391 72.5718 243.007 73.7475 242.24 74.9744C241.525 76.1501 240.426 76.7379 238.943 76.7379C237.921 76.7379 237.154 76.4568 236.643 75.8945C236.183 75.2811 235.953 74.5399 235.953 73.6708C235.953 72.9552 236.183 72.1628 236.643 71.2938C237.103 70.3737 237.691 69.5814 238.407 68.9168H238.177C237.563 68.9168 237.052 68.9935 236.643 69.1469C236.285 69.3002 235.876 69.5814 235.416 69.9903C234.649 70.706 234.01 71.6517 233.499 72.8274C232.988 73.952 232.349 75.5622 231.582 77.6581C230.611 80.2651 229.716 82.3865 228.899 84.0223C228.132 85.6581 227.033 87.115 225.601 88.3929C224.221 89.6709 222.458 90.4632 220.311 90.7699C223.224 91.3833 225.371 92.5591 226.752 94.2971C228.132 96.0351 228.72 98.6933 228.515 102.272L228.362 108.866C228.311 109.786 228.541 110.527 229.052 111.089C229.563 111.601 230.177 111.856 230.892 111.856C232.17 111.856 233.244 111.396 234.113 110.476C235.033 109.505 235.851 107.971 236.566 105.875L237.87 101.965H239.403L237.41 107.869C236.439 110.681 235.186 112.751 233.653 114.08C232.119 115.409 230.253 116.073 228.055 116.073C225.908 116.073 224.272 115.46 223.148 114.233C222.074 112.955 221.538 111.141 221.538 108.789C221.538 108.073 221.563 107.537 221.614 107.179L222.074 101.505C222.125 101.045 222.151 100.406 222.151 99.5878C222.151 97.5431 221.844 95.8051 221.231 94.3738C220.669 92.8913 219.876 91.8945 218.854 91.3833C216.605 91.9456 214.969 92.2268 213.946 92.2268C212.311 92.2268 211.493 91.7412 211.493 90.7699C211.493 89.7987 212.285 89.313 213.87 89.313C215.046 89.313 216.656 89.5686 218.7 90.0798C220.95 89.8753 222.764 89.1852 224.145 88.0095C225.576 86.7827 226.675 85.3769 227.442 83.7923C228.208 82.1565 229.026 80.0606 229.895 77.5047C230.611 75.3577 231.276 73.6197 231.889 72.2906C232.554 70.9616 233.346 69.8881 234.266 69.0702C235.748 67.8945 237.282 67.3066 238.867 67.3066ZM205.359 106.872C204.899 108.815 204.668 110.067 204.668 110.629C204.668 111.703 205.026 112.419 205.742 112.776C206.509 113.134 207.889 113.364 209.883 113.466L209.576 115C207.224 114.847 203.978 114.77 199.838 114.77C195.595 114.77 192.349 114.847 190.1 115L190.483 113.466C192.272 113.364 193.601 113.16 194.47 112.853C195.391 112.546 196.106 111.958 196.617 111.089C197.18 110.169 197.716 108.764 198.228 106.872L206.279 76.5079C206.688 74.7699 206.892 73.543 206.892 72.8274C206.892 71.7028 206.509 70.9616 205.742 70.6037C205.026 70.2459 203.697 70.0159 201.755 69.9136L202.138 68.3801C204.234 68.5334 207.48 68.6101 211.876 68.6101C215.966 68.6101 219.237 68.5334 221.691 68.3801L221.308 69.9136C219.416 70.0159 218.01 70.2204 217.09 70.5271C216.221 70.8338 215.506 71.4216 214.943 72.2906C214.432 73.1597 213.921 74.5654 213.41 76.5079L205.359 106.872ZM278.419 68.6101C286.138 68.6101 291.684 68.5334 295.058 68.3801C294.087 70.7827 293.167 73.543 292.298 76.6613C291.531 79.6261 291.096 81.4664 290.994 82.182H289.231C289.691 79.9328 289.921 78.067 289.921 76.5846C289.921 74.2331 289.282 72.5718 288.004 71.6005C286.777 70.6293 284.681 70.1437 281.716 70.1437H276.119C274.278 70.1437 272.898 70.297 271.978 70.6037C271.058 70.8593 270.317 71.4216 269.754 72.2906C269.243 73.1597 268.732 74.5654 268.221 76.5079L264.387 90.7699H271.518C273.818 90.7699 275.582 89.9776 276.809 88.3929C278.087 86.7571 279.211 84.6868 280.183 82.182H281.946C280.719 85.8114 279.799 88.9297 279.186 91.5367L278.726 93.2236C277.959 96.1373 277.422 98.6933 277.116 100.891H275.352C275.403 100.585 275.48 100.048 275.582 99.2811C275.684 98.5143 275.735 97.8498 275.735 97.2875C275.735 95.754 275.326 94.5527 274.509 93.6837C273.742 92.7635 272.336 92.3035 270.291 92.3035H263.927L260.016 106.872C259.556 108.815 259.326 110.042 259.326 110.553C259.326 111.677 259.684 112.419 260.4 112.776C261.167 113.083 262.547 113.236 264.54 113.236H270.138C272.949 113.236 275.275 112.802 277.116 111.933C279.007 111.064 280.643 109.658 282.023 107.716C283.454 105.773 284.809 103.089 286.087 99.6645H287.85C286.93 102.374 286.317 104.47 286.01 105.952C285.448 107.843 284.809 110.859 284.093 115C280.515 114.847 274.509 114.77 266.074 114.77C256.617 114.77 249.461 114.847 244.604 115L244.988 113.466C246.828 113.364 248.208 113.16 249.128 112.853C250.048 112.546 250.764 111.958 251.275 111.089C251.838 110.22 252.374 108.815 252.885 106.872L261.09 76.5079C261.55 74.5654 261.78 73.313 261.78 72.7507C261.78 71.6772 261.397 70.9616 260.63 70.6037C259.914 70.2459 258.585 70.0159 256.643 69.9136L257.026 68.3801C261.831 68.5334 268.962 68.6101 278.419 68.6101Z" fill="#F4E5FF"/>
<path d="M93.4808 60.1756L96.5359 61.3842L98.3137 56.8901H93.4808V60.1756ZM88.9568 75.8178V79.1033H91.6409L92.1763 76.4731L88.9568 75.8178ZM87.4233 75.8178L84.2059 75.1522L83.3884 79.1033H87.4233V75.8178ZM69.174 63.5494L67.09 61.0095L67.0738 61.0228L67.0577 61.0363L69.174 63.5494ZM68.5606 77.7347L65.9091 79.6749L65.9244 79.6957L65.9399 79.7162L68.5606 77.7347ZM75.6149 85.1725L73.3931 87.5927L73.4004 87.5994L73.4077 87.6061L75.6149 85.1725ZM80.9057 90.3865L83.3519 88.1933L80.9057 90.3865ZM84.2795 95.2939L81.3577 96.7965L84.2795 95.2939ZM82.7459 109.479L80.2357 107.359L80.2314 107.365L82.7459 109.479ZM59.7427 115.077L58.4721 118.107L58.4891 118.114L58.5061 118.121L59.7427 115.077ZM55.3721 112.546L53.3362 115.125L53.3525 115.138L53.3689 115.15L55.3721 112.546ZM51.0781 112.316L53.8118 114.139H53.8118L51.0781 112.316ZM49.4679 115.537V118.822H51.6249L52.4825 116.843L49.4679 115.537ZM47.9344 115.537L44.9063 114.262L42.9862 118.822H47.9344V115.537ZM50.3114 108.559L47.1613 107.626L47.1555 107.645L47.1501 107.664L50.3114 108.559ZM53.1484 97.1341V93.8487H50.5099L49.9404 96.425L53.1484 97.1341ZM54.682 97.1341L57.9088 97.7521L58.6563 93.8487H54.682V97.1341ZM57.059 111.473L59.3821 109.15L57.059 111.473ZM74.6948 112.163L72.6822 109.566L72.6662 109.578L72.6504 109.591L74.6948 112.163ZM76.6117 99.5878L73.6369 100.982H73.6369L76.6117 99.5878ZM73.7747 95.2939L71.259 97.4071L71.3047 97.4615L71.3528 97.514L73.7747 95.2939ZM69.2507 90.5399L71.5427 88.1859L71.5282 88.1718L71.5136 88.1579L69.2507 90.5399ZM64.3433 85.5558L61.8423 87.6864L61.8647 87.7127L61.8877 87.7386L64.3433 85.5558ZM61.2762 80.7252L58.2739 82.0595L58.2892 82.094L58.3054 82.1281L61.2762 80.7252ZM62.4264 66.4632L59.7693 64.5307L59.7548 64.5507L59.7406 64.5709L62.4264 66.4632ZM68.7139 61.4024L70.0371 64.4097L70.0509 64.4036L70.0646 64.3974L68.7139 61.4024ZM82.3625 60.4056L81.3236 63.5225L81.3236 63.5225L82.3625 60.4056ZM86.8865 62.8593L84.9008 65.4768L84.908 65.4823L84.9152 65.4877L86.8865 62.8593ZM90.567 63.3194L87.7689 61.5975L87.7486 61.6305L87.7291 61.6639L90.567 63.3194ZM91.9472 60.1756V56.8901H89.6319L88.8532 59.0706L91.9472 60.1756ZM90.4257 58.967C88.5033 63.8263 86.9449 69.2296 85.7373 75.1625L92.1763 76.4731C93.3201 70.8532 94.7777 65.8284 96.5359 61.3842L90.4257 58.967ZM88.9568 72.5323H87.4233V79.1033H88.9568V72.5323ZM90.6406 76.4835C90.99 74.7946 91.1688 73.1146 91.1688 71.4472H84.5978C84.5978 72.6424 84.4699 73.8762 84.2059 75.1522L90.6406 76.4835ZM91.1688 71.4472C91.1688 67.7322 90.0438 64.4193 87.6162 61.7837L82.783 66.2353C83.9337 67.4847 84.5978 69.1302 84.5978 71.4472H91.1688ZM87.6162 61.7837C84.9911 58.9335 81.2216 57.8103 76.9951 57.8103V64.3812C80.1297 64.3812 81.8299 65.2005 82.783 66.2353L87.6162 61.7837ZM76.9951 57.8103C73.2088 57.8103 69.8055 58.7814 67.09 61.0095L71.258 66.0893C72.5297 65.0459 74.3405 64.3812 76.9951 64.3812V57.8103ZM67.0577 61.0363C64.183 63.4572 62.9748 66.9252 62.9748 70.8338H69.5457C69.5457 68.3014 70.2801 66.9132 71.2903 66.0625L67.0577 61.0363ZM62.9748 70.8338C62.9748 74.0631 63.9798 77.0382 65.9091 79.6749L71.2121 75.7946C70.0742 74.2396 69.5457 72.614 69.5457 70.8338H62.9748ZM65.9399 79.7162C67.6937 82.0357 70.2057 84.6666 73.3931 87.5927L77.8368 82.7522C74.7877 79.9531 72.5968 77.6255 71.1813 75.7533L65.9399 79.7162ZM73.4077 87.6061C75.5583 89.5566 77.2327 91.2114 78.4594 92.5797L83.3519 88.1933C81.9205 86.5967 80.0677 84.7755 77.8221 82.7389L73.4077 87.6061ZM78.4594 92.5797C79.5992 93.851 80.5646 95.2543 81.3577 96.7965L87.2012 93.7913C86.1541 91.7552 84.8703 89.8869 83.3519 88.1933L78.4594 92.5797ZM81.3577 96.7965C82.0348 98.113 82.3742 99.5138 82.3742 101.045H88.9451C88.9451 98.4862 88.3644 96.0531 87.2012 93.7913L81.3577 96.7965ZM82.3742 101.045C82.3742 103.678 81.6247 105.715 80.2357 107.359L85.2561 111.599C87.7521 108.643 88.9451 105.057 88.9451 101.045H82.3742ZM80.2314 107.365C78.7387 109.14 76.806 110.482 74.3431 111.374L76.5801 117.552C80.0469 116.297 82.9704 114.317 85.2605 111.594L80.2314 107.365ZM74.3431 111.374C71.7387 112.317 69.0502 112.788 66.2603 112.788V119.359C69.809 119.359 73.2547 118.756 76.5801 117.552L74.3431 111.374ZM66.2603 112.788C63.7718 112.788 62.07 112.476 60.9793 112.033L58.5061 118.121C60.6869 119.007 63.3302 119.359 66.2603 119.359V112.788ZM61.0133 112.047C59.6836 111.489 58.474 110.787 57.3753 109.942L53.3689 115.15C54.9283 116.35 56.6324 117.335 58.4721 118.107L61.0133 112.047ZM57.4079 109.968C56.0967 108.932 54.476 108.111 52.6117 108.111V114.682C52.4854 114.682 52.705 114.627 53.3362 115.125L57.4079 109.968ZM52.6117 108.111C50.6674 108.111 49.2215 109.178 48.3445 110.494L53.8118 114.139C53.8088 114.143 53.7069 114.294 53.4586 114.443C53.1882 114.606 52.8823 114.682 52.6117 114.682V108.111ZM48.3445 110.494C47.7582 111.373 47.1232 112.684 46.4533 114.23L52.4825 116.843C53.1417 115.322 53.5802 114.486 53.8118 114.139L48.3445 110.494ZM49.4679 112.251H47.9344V118.822H49.4679V112.251ZM50.9624 116.812C51.8464 114.712 52.6806 112.252 53.4726 109.454L47.1501 107.664C46.4086 110.284 45.6581 112.476 44.9063 114.262L50.9624 116.812ZM53.4615 109.492C54.3114 106.624 55.2764 102.729 56.3564 97.8433L49.9404 96.425C48.8735 101.251 47.9471 104.974 47.1613 107.626L53.4615 109.492ZM53.1484 100.42H54.682V93.8487H53.1484V100.42ZM51.4551 96.5162C50.981 98.9924 50.7064 101.121 50.7064 102.808H57.2773C57.2773 101.736 57.4628 100.081 57.9088 97.7521L51.4551 96.5162ZM50.7064 102.808C50.7064 107.147 51.9102 110.97 54.7358 113.796L59.3821 109.15C58.1183 107.886 57.2773 105.933 57.2773 102.808H50.7064ZM54.7358 113.796C57.6341 116.694 61.782 117.825 66.4903 117.825V111.254C62.713 111.254 60.5733 110.341 59.3821 109.15L54.7358 113.796ZM66.4903 117.825C70.4401 117.825 73.984 116.925 76.7392 114.735L72.6504 109.591C71.4183 110.57 69.4926 111.254 66.4903 111.254V117.825ZM76.7074 114.76C79.7497 112.402 81.0474 108.917 81.0474 104.955H74.4764C74.4764 107.435 73.7293 108.755 72.6822 109.566L76.7074 114.76ZM81.0474 104.955C81.0474 102.568 80.573 100.298 79.5866 98.1934L73.6369 100.982C74.184 102.149 74.4764 103.458 74.4764 104.955H81.0474ZM79.5866 98.1934C78.6905 96.2816 77.5647 94.5663 76.1966 93.0738L71.3528 97.514C72.2339 98.4752 72.9995 99.6225 73.6369 100.982L79.5866 98.1934ZM76.2904 93.1807C75.1168 91.7836 73.5218 90.113 71.5427 88.1859L66.9587 92.8938C68.8645 94.7495 70.2856 96.2483 71.259 97.4071L76.2904 93.1807ZM71.5136 88.1579C69.5049 86.2497 67.9414 84.6584 66.7989 83.3731L61.8877 87.7386C63.199 89.2137 64.907 90.9451 66.9878 92.9218L71.5136 88.1579ZM66.8444 83.4253C65.878 82.2909 65.0072 80.9318 64.2471 79.3223L58.3054 82.1281C59.2833 84.199 60.4572 86.0604 61.8423 87.6864L66.8444 83.4253ZM64.2785 79.3908C63.6681 78.0173 63.3349 76.4344 63.3349 74.591H56.7639C56.7639 77.246 57.2486 79.7526 58.2739 82.0595L64.2785 79.3908ZM63.3349 74.591C63.3349 71.9927 63.9748 69.9697 65.1122 68.3554L59.7406 64.5709C57.7086 67.455 56.7639 70.8505 56.7639 74.591H63.3349ZM65.0835 68.3956C66.376 66.6183 68.0108 65.3013 70.0371 64.4097L67.3908 58.3952C64.3053 59.7528 61.7483 61.8096 59.7693 64.5307L65.0835 68.3956ZM70.0646 64.3974C72.2467 63.4134 74.5211 62.9243 76.9184 62.9243V56.3534C73.5905 56.3534 70.3953 57.0401 67.3633 58.4075L70.0646 64.3974ZM76.9184 62.9243C78.7601 62.9243 80.2075 63.1505 81.3236 63.5225L83.4015 57.2888C81.4504 56.6384 79.2684 56.3534 76.9184 56.3534V62.9243ZM81.3236 63.5225C82.4693 63.9044 83.6621 64.5371 84.9008 65.4768L88.8722 60.2418C87.1461 58.9323 85.3229 57.9292 83.4015 57.2888L81.3236 63.5225ZM84.9152 65.4877C85.5901 65.9938 86.249 66.4422 86.866 66.7788C87.3526 67.0442 88.3037 67.525 89.4169 67.525V60.954C89.6277 60.954 89.7912 60.9797 89.892 61.0006C89.9948 61.0219 90.064 61.0447 90.0934 61.0551C90.1456 61.0735 90.124 61.071 90.0125 61.0102C89.786 60.8866 89.4098 60.6449 88.8578 60.2309L84.9152 65.4877ZM89.4169 67.525C91.6629 67.525 92.8992 65.8418 93.4049 64.9748L87.7291 61.6639C87.6707 61.7641 87.7275 61.6289 87.9587 61.444C88.2284 61.2282 88.7337 60.954 89.4169 60.954V67.525ZM93.3651 65.0413C93.9591 64.0761 94.511 62.7653 95.0413 61.2806L88.8532 59.0706C88.361 60.4485 87.9928 61.2336 87.7689 61.5975L93.3651 65.0413ZM91.9472 63.4611H93.4808V56.8901H91.9472V63.4611ZM149.97 61.0957L147.386 63.1256L147.467 63.2283L147.556 63.3242L149.97 61.0957ZM147.363 69.3002L149.024 72.1346L149.175 72.0462L149.316 71.9423L147.363 69.3002ZM142.686 71.2172L143.388 74.4267L143.435 74.4163L143.482 74.4045L142.686 71.2172ZM130.264 71.3705L130.611 68.1035L127.873 67.8121L127.108 70.4578L130.264 71.3705ZM120.219 106.105L123.366 107.049L123.371 107.034L123.375 107.018L120.219 106.105ZM125.97 113.466L129.192 114.111L129.96 110.267L126.041 110.182L125.97 113.466ZM125.663 115L125.474 118.28L128.325 118.444L128.885 115.644L125.663 115ZM103.043 115L99.8216 114.356L98.9836 118.546L103.248 118.279L103.043 115ZM103.35 113.466L103.197 110.185L100.632 110.304L100.128 112.822L103.35 113.466ZM108.411 112.7L107.331 109.597L108.411 112.7ZM111.171 110.629L108.526 108.68L108.492 108.727L108.46 108.774L111.171 110.629ZM113.088 106.105L109.932 105.191L109.926 105.213L109.92 105.234L113.088 106.105ZM123.439 70.3737L126.595 71.2879L127.654 67.6326L123.883 67.1184L123.439 70.3737ZM106.57 70.7571L104.951 67.8987L101.749 69.7131L103.913 72.6895L106.57 70.7571ZM107.567 72.8274L104.431 73.8074V73.8074L107.567 72.8274ZM106.954 78.3482L109.564 80.3439L109.591 80.3082L109.617 80.2718L106.954 78.3482ZM101.586 78.6549L99.003 80.6847L99.0837 80.7874L99.1722 80.8833L101.586 78.6549ZM104.73 69.837L106.244 72.7528L106.262 72.7435L106.28 72.734L104.73 69.837ZM125.586 69.1469L125.14 72.4018L125.146 72.4027L125.586 69.1469ZM131.414 69.9136L130.996 73.1724L131.042 73.1783L131.087 73.1828L131.414 69.9136ZM141.842 69.837L142.486 73.0586L141.842 69.837ZM145.599 68.5335L147.069 71.4721L151.146 69.4335L147.922 66.2103L145.599 68.5335ZM144.602 61.3258L141.993 59.33L141.983 59.3422L141.974 59.3545L144.602 61.3258ZM147.44 63.3077C147.659 63.3077 147.698 63.3428 147.632 63.3152C147.599 63.301 147.552 63.276 147.501 63.2373C147.451 63.1985 147.412 63.1581 147.386 63.1256L152.553 59.0659C151.222 57.3719 149.31 56.7368 147.44 56.7368V63.3077ZM147.556 63.3242C147.561 63.33 147.564 63.3339 147.566 63.3359C147.567 63.3379 147.568 63.3388 147.568 63.339C147.568 63.3391 147.568 63.3395 147.569 63.3405C147.569 63.3416 147.57 63.3444 147.572 63.3495C147.578 63.365 147.605 63.4452 147.605 63.6261H154.176C154.176 61.8938 153.632 60.2189 152.384 58.8673L147.556 63.3242ZM147.605 63.6261C147.605 64.2309 147.305 65.2574 145.41 66.6581L149.316 71.9423C152.124 69.867 154.176 67.1107 154.176 63.6261H147.605ZM145.701 66.4659C144.484 67.1797 143.215 67.6982 141.889 68.0298L143.482 74.4045C145.428 73.9182 147.277 73.1588 149.024 72.1346L145.701 66.4659ZM141.983 68.0076C140.646 68.3002 138.927 68.4684 136.781 68.4684V75.0394C139.237 75.0394 141.454 74.8498 143.388 74.4267L141.983 68.0076ZM136.781 68.4684C134.979 68.4684 132.925 68.3496 130.611 68.1035L129.916 74.6376C132.408 74.9026 134.699 75.0394 136.781 75.0394V68.4684ZM127.108 70.4578L117.063 105.193L123.375 107.018L133.42 72.2832L127.108 70.4578ZM117.072 105.161C116.566 106.849 116.243 108.47 116.243 109.939H122.814C122.814 109.364 122.952 108.429 123.366 107.049L117.072 105.161ZM116.243 109.939C116.243 112.194 117.205 114.346 119.456 115.53L122.516 109.716C122.525 109.72 122.57 109.746 122.63 109.803C122.691 109.862 122.743 109.932 122.781 110.001C122.857 110.143 122.814 110.168 122.814 109.939H116.243ZM119.456 115.53C121.156 116.425 123.492 116.699 125.898 116.751L126.041 110.182C123.745 110.132 122.759 109.843 122.516 109.716L119.456 115.53ZM122.748 112.822L122.441 114.356L128.885 115.644L129.192 114.111L122.748 112.822ZM125.852 111.72C123.099 111.561 119.216 111.484 114.238 111.484V118.055C119.177 118.055 122.911 118.132 125.474 118.28L125.852 111.72ZM114.238 111.484C109.215 111.484 105.399 111.561 102.838 111.721L103.248 118.279C105.595 118.132 109.242 118.055 114.238 118.055V111.484ZM106.265 115.644L106.572 114.111L100.128 112.822L99.8216 114.356L106.265 115.644ZM103.503 116.748C105.814 116.641 107.871 116.366 109.49 115.803L107.331 109.597C106.599 109.851 105.282 110.088 103.197 110.185L103.503 116.748ZM109.49 115.803C111.288 115.177 112.798 114.07 113.883 112.485L108.46 108.774C108.215 109.131 107.884 109.404 107.331 109.597L109.49 115.803ZM113.816 112.578C114.887 111.125 115.655 109.161 116.256 106.977L109.92 105.234C109.396 107.139 108.887 108.191 108.526 108.68L113.816 112.578ZM116.244 107.02L126.595 71.2879L120.284 69.4595L109.932 105.191L116.244 107.02ZM123.883 67.1184C119.38 66.5042 115.965 66.1681 113.778 66.1681V72.739C115.477 72.739 118.502 73.0163 122.996 73.629L123.883 67.1184ZM113.778 66.1681C110.349 66.1681 107.242 66.6001 104.951 67.8987L108.19 73.6155C108.966 73.176 110.664 72.739 113.778 72.739V66.1681ZM103.913 72.6895C104.07 72.9043 104.259 73.2546 104.431 73.8074L110.703 71.8474C110.365 70.7644 109.889 69.7345 109.228 68.8247L103.913 72.6895ZM104.431 73.8074C104.599 74.3449 104.665 74.8064 104.665 75.2044H111.236C111.236 74.0688 111.046 72.9457 110.703 71.8474L104.431 73.8074ZM104.665 75.2044C104.665 75.7159 104.535 76.0854 104.29 76.4246L109.617 80.2718C110.701 78.7707 111.236 77.0443 111.236 75.2044H104.665ZM104.344 76.3524C104.327 76.3744 104.323 76.3746 104.336 76.3648C104.348 76.3546 104.363 76.3456 104.374 76.3404C104.402 76.3277 104.34 76.3662 104.117 76.3662V82.9371C106.225 82.9371 108.196 82.1324 109.564 80.3439L104.344 76.3524ZM104.117 76.3662C103.918 76.3662 103.858 76.3357 103.883 76.3457C103.895 76.3505 103.918 76.3612 103.945 76.3795C103.972 76.3978 103.991 76.4155 104.001 76.4264L99.1722 80.8833C100.524 82.3475 102.313 82.9371 104.117 82.9371V76.3662ZM104.17 76.625C104.165 76.6192 104.136 76.5821 104.103 76.4726C104.068 76.3553 104.028 76.1474 104.028 75.8178H97.4575C97.4575 77.5128 97.8679 79.2401 99.003 80.6847L104.17 76.625ZM104.028 75.8178C104.028 75.1032 104.2 74.5993 104.473 74.1898C104.763 73.7562 105.286 73.2502 106.244 72.7528L103.216 66.9211C101.516 67.804 100.046 68.9848 99.0061 70.5449C97.95 72.129 97.4575 73.9253 97.4575 75.8178H104.028ZM106.28 72.734C107.839 71.9001 110.137 71.3588 113.395 71.3588V64.7879C109.496 64.7879 106.018 65.4223 103.181 66.9399L106.28 72.734ZM113.395 71.3588C116.085 71.3588 119.976 71.6931 125.14 72.4018L126.033 65.8919C120.769 65.1693 116.532 64.7879 113.395 64.7879V71.3588ZM125.146 72.4027C127.046 72.6594 128.996 72.9159 130.996 73.1724L131.832 66.6549C129.845 66.4002 127.91 66.1455 126.026 65.891L125.146 72.4027ZM131.087 73.1828C133.221 73.3962 135.223 73.5058 137.088 73.5058V66.9349C135.477 66.9349 133.696 66.84 131.741 66.6445L131.087 73.1828ZM137.088 73.5058C139.108 73.5058 140.925 73.3709 142.486 73.0586L141.198 66.6153C140.203 66.8142 138.851 66.9349 137.088 66.9349V73.5058ZM142.486 73.0586C144.065 72.7428 145.594 72.2092 147.069 71.4721L144.13 65.5948C143.151 66.0845 142.175 66.4199 141.198 66.6153L142.486 73.0586ZM147.922 66.2103C147.167 65.4543 146.968 64.8282 146.968 64.2395H140.397C140.397 66.8202 141.476 69.0566 143.276 70.8566L147.922 66.2103ZM146.968 64.2395C146.968 63.7508 147.087 63.489 147.231 63.297L141.974 59.3545C140.891 60.7983 140.397 62.4791 140.397 64.2395H146.968ZM147.212 63.3215C147.229 63.2995 147.233 63.2993 147.221 63.3091C147.208 63.3193 147.193 63.3284 147.182 63.3336C147.154 63.3462 147.216 63.3077 147.44 63.3077V56.7368C145.332 56.7368 143.36 57.5415 141.993 59.33L147.212 63.3215ZM179.684 108.559L176.421 108.94L176.422 108.947L176.423 108.954L179.684 108.559ZM183.441 113.466L186.629 114.263L187.59 110.419L183.634 110.187L183.441 113.466ZM183.058 115L182.812 118.276L185.574 118.483L186.245 115.797L183.058 115ZM165.499 115L162.312 114.203L161.206 118.625L165.751 118.276L165.499 115ZM165.882 113.466L165.743 110.184L163.29 110.288L162.695 112.67L165.882 113.466ZM171.02 112.316L172.81 115.071L171.02 112.316ZM172.477 107.026L169.215 107.42L169.219 107.455L169.224 107.49L172.477 107.026ZM171.326 97.5175L174.588 97.123L174.238 94.2321H171.326V97.5175ZM151.85 97.5175V94.2321H150.271L149.285 95.4651L151.85 97.5175ZM146.636 104.035L144.071 101.983L144.066 101.989L146.636 104.035ZM148.246 113.466H151.532V110.493L148.573 110.197L148.246 113.466ZM148.246 115L147.92 118.269L151.532 118.63V115H148.246ZM134.598 115H131.312V118.686L134.974 118.264L134.598 115ZM134.598 113.466L133.733 110.297L131.312 110.957V113.466H134.598ZM142.956 106.335L145.518 108.392L145.52 108.389L142.956 106.335ZM173.78 67.8434V64.5579H172.202L171.216 65.7897L173.78 67.8434ZM174.93 67.8434L178.194 67.4623L177.854 64.5579H174.93V67.8434ZM171.173 95.984V99.2695H174.884L174.434 95.586L171.173 95.984ZM168.796 76.5079L172.057 76.1099L171.117 68.4016L166.239 74.4445L168.796 76.5079ZM153.077 95.984L150.52 93.9205L146.203 99.2695H153.077V95.984ZM176.423 108.954C176.663 110.939 177.259 112.977 178.663 114.481L183.466 109.998C183.439 109.968 183.114 109.553 182.946 108.164L176.423 108.954ZM178.663 114.481C179.829 115.731 181.37 116.636 183.248 116.746L183.634 110.187C183.646 110.187 183.663 110.19 183.681 110.195C183.699 110.2 183.706 110.204 183.702 110.202C183.694 110.198 183.611 110.153 183.466 109.998L178.663 114.481ZM180.254 112.67L179.871 114.203L186.245 115.797L186.629 114.263L180.254 112.67ZM183.304 111.724C181.14 111.561 178.26 111.484 174.7 111.484V118.055C178.195 118.055 180.887 118.132 182.812 118.276L183.304 111.724ZM174.7 111.484C170.544 111.484 167.373 111.561 165.247 111.724L165.751 118.276C167.612 118.133 170.575 118.055 174.7 118.055V111.484ZM168.686 115.797L169.07 114.263L162.695 112.67L162.312 114.203L168.686 115.797ZM166.022 116.749C168.542 116.642 171.011 116.241 172.81 115.071L169.229 109.562C168.984 109.721 168.028 110.087 165.743 110.184L166.022 116.749ZM172.81 115.071C175.176 113.533 175.839 110.911 175.839 108.559H169.268C169.268 109.197 169.176 109.519 169.128 109.637C169.107 109.688 169.101 109.685 169.125 109.655C169.151 109.623 169.189 109.588 169.229 109.562L172.81 115.071ZM175.839 108.559C175.839 107.845 175.813 107.15 175.729 106.561L169.224 107.49C169.242 107.616 169.268 107.944 169.268 108.559H175.839ZM175.738 106.631L174.588 97.123L168.065 97.9121L169.215 107.42L175.738 106.631ZM171.326 94.2321H151.85V100.803H171.326V94.2321ZM149.285 95.4651L144.071 101.983L149.202 106.088L154.416 99.5699L149.285 95.4651ZM144.066 101.989C142.005 104.578 140.36 107.389 140.36 110.169H146.931C146.931 109.78 147.28 108.502 149.207 106.081L144.066 101.989ZM140.36 110.169C140.36 112.171 141.252 113.914 142.882 115.083C144.324 116.116 146.138 116.557 147.92 116.736L148.573 110.197C147.965 110.136 147.514 110.044 147.194 109.946C146.871 109.847 146.736 109.76 146.71 109.742C146.699 109.734 146.782 109.794 146.857 109.94C146.932 110.086 146.931 110.187 146.931 110.169H140.36ZM144.961 113.466V115H151.532V113.466H144.961ZM148.573 111.731C146.87 111.561 144.41 111.484 141.269 111.484V118.055C144.364 118.055 146.556 118.133 147.92 118.269L148.573 111.731ZM141.269 111.484C138.146 111.484 135.755 111.559 134.221 111.736L134.974 118.264C136.098 118.134 138.156 118.055 141.269 118.055V111.484ZM137.883 115V113.466H131.312V115H137.883ZM135.462 116.636C137.245 116.15 138.934 115.065 140.507 113.723C142.109 112.356 143.78 110.558 145.518 108.392L140.393 104.279C138.809 106.253 137.425 107.715 136.242 108.724C135.029 109.759 134.2 110.169 133.733 110.297L135.462 116.636ZM145.52 108.389L176.345 69.897L171.216 65.7897L140.391 104.282L145.52 108.389ZM173.78 71.1288H174.93V64.5579H173.78V71.1288ZM171.667 68.2244L176.421 108.94L182.948 108.178L178.194 67.4623L171.667 68.2244ZM174.434 95.586L172.057 76.1099L165.535 76.9059L167.912 96.382L174.434 95.586ZM166.239 74.4445L150.52 93.9205L155.634 98.0474L171.353 78.5714L166.239 74.4445ZM153.077 99.2695H171.173V92.6985H153.077V99.2695ZM242.24 68.4568L239.839 70.6985L239.877 70.7399L239.917 70.7799L242.24 68.4568ZM242.24 74.9744L239.454 73.2331L239.444 73.2495L239.434 73.2661L242.24 74.9744ZM236.643 75.8945L234.015 77.8658L234.108 77.9898L234.212 78.1045L236.643 75.8945ZM236.643 71.2938L239.547 72.8311L239.565 72.7973L239.582 72.7631L236.643 71.2938ZM238.407 68.9168L240.642 71.3244L246.773 65.6314H238.407V68.9168ZM236.643 69.1469L235.489 66.0706L235.418 66.0972L235.349 66.127L236.643 69.1469ZM235.416 69.9903L233.233 67.5347L233.204 67.5612L233.174 67.5885L235.416 69.9903ZM233.499 72.8274L236.49 74.1869L236.501 74.1622L236.512 74.1374L233.499 72.8274ZM231.582 77.6581L234.661 78.8051L234.664 78.796L234.668 78.7869L231.582 77.6581ZM228.899 84.0223L225.96 82.553L225.941 82.5902L225.924 82.6278L228.899 84.0223ZM225.601 88.3929L223.413 85.9422L223.391 85.962L223.369 85.9822L225.601 88.3929ZM220.311 90.7699L219.846 87.5175L219.634 93.9849L220.311 90.7699ZM226.752 94.2971L224.179 96.3403L226.752 94.2971ZM228.515 102.272L225.235 102.084L225.232 102.14L225.231 102.195L228.515 102.272ZM228.362 108.866L231.642 109.048L231.645 108.995L231.646 108.942L228.362 108.866ZM229.052 111.089L226.621 113.299L226.673 113.357L226.729 113.413L229.052 111.089ZM234.113 110.476L231.728 108.216L231.724 108.22L234.113 110.476ZM236.566 105.875L239.676 106.937L239.679 106.926L239.683 106.914L236.566 105.875ZM237.87 101.965V98.6794H235.502L234.753 100.926L237.87 101.965ZM239.403 101.965L242.516 103.016L243.98 98.6794H239.403V101.965ZM237.41 107.869L240.515 108.942L240.519 108.931L240.523 108.92L237.41 107.869ZM233.653 114.08L231.501 111.597L233.653 114.08ZM223.148 114.233L220.632 116.346L220.678 116.401L220.726 116.453L223.148 114.233ZM221.614 107.179L224.867 107.644L224.881 107.544L224.889 107.444L221.614 107.179ZM222.074 101.505L218.809 101.142L218.804 101.191L218.8 101.239L222.074 101.505ZM221.231 94.3738L218.159 95.539L218.184 95.604L218.211 95.668L221.231 94.3738ZM218.854 91.3833L220.323 88.4447L219.236 87.9012L218.057 88.196L218.854 91.3833ZM218.7 90.0798L217.904 93.2672L218.444 93.4022L218.998 93.3518L218.7 90.0798ZM224.145 88.0095L226.275 90.5106L226.283 90.504L224.145 88.0095ZM227.442 83.7923L230.399 85.2233L230.408 85.2051L230.417 85.1867L227.442 83.7923ZM229.895 77.5047L233.006 78.5623L233.009 78.553L233.012 78.5437L229.895 77.5047ZM231.889 72.2906L228.95 70.8213L228.927 70.8672L228.906 70.9138L231.889 72.2906ZM234.266 69.0702L232.224 66.496L232.152 66.5533L232.083 66.6146L234.266 69.0702ZM205.359 106.872L202.183 106.03L202.172 106.072L202.162 106.115L205.359 106.872ZM205.742 112.776L204.273 115.715L204.312 115.735L204.353 115.754L205.742 112.776ZM209.883 113.466L213.104 114.111L213.85 110.38L210.051 110.185L209.883 113.466ZM209.576 115L209.362 118.279L212.233 118.466L212.798 115.644L209.576 115ZM190.1 115L186.912 114.203L185.817 118.585L190.323 118.278L190.1 115ZM190.483 113.466L190.296 110.186L187.882 110.324L187.296 112.67L190.483 113.466ZM194.47 112.853L193.431 109.736L193.404 109.745L193.377 109.755L194.47 112.853ZM196.617 111.089L193.814 109.376L193.8 109.4L193.786 109.424L196.617 111.089ZM198.228 106.872L201.399 107.729L201.401 107.722L201.403 107.714L198.228 106.872ZM206.279 76.5079L209.454 77.35L209.466 77.3053L209.477 77.2604L206.279 76.5079ZM205.742 70.6037L204.273 73.5424L204.312 73.5622L204.353 73.581L205.742 70.6037ZM201.755 69.9136L198.567 69.1168L197.6 72.985L201.582 73.1946L201.755 69.9136ZM202.138 68.3801L202.378 65.1034L199.621 64.9017L198.951 67.5833L202.138 68.3801ZM221.691 68.3801L224.878 69.1769L225.967 64.8209L221.486 65.101L221.691 68.3801ZM221.308 69.9136L221.485 73.1943L223.907 73.0634L224.495 70.7105L221.308 69.9136ZM217.09 70.5271L216.051 67.4102L216.024 67.4193L215.997 67.4289L217.09 70.5271ZM214.943 72.2906L212.185 70.5058L212.147 70.5645L212.111 70.6248L214.943 72.2906ZM213.41 76.5079L216.585 77.35L216.587 77.344L213.41 76.5079ZM238.867 70.5921C239.372 70.5921 239.662 70.6568 239.8 70.7039C239.919 70.7445 239.896 70.7604 239.839 70.6985L244.642 66.215C243.065 64.5253 240.886 64.0211 238.867 64.0211V70.5921ZM239.917 70.7799C239.985 70.8476 240.105 70.967 240.105 71.4472H246.676C246.676 69.4737 246.029 67.5995 244.564 66.1336L239.917 70.7799ZM240.105 71.4472C240.105 71.8026 239.987 72.3809 239.454 73.2331L245.027 76.7157C246.027 75.1141 246.676 73.3409 246.676 71.4472H240.105ZM239.434 73.2661C239.387 73.3437 239.353 73.3787 239.342 73.3898C239.336 73.3958 239.333 73.3982 239.332 73.3985C239.332 73.3989 239.331 73.3992 239.33 73.4C239.329 73.4004 239.308 73.4118 239.254 73.4243C239.197 73.4372 239.097 73.4525 238.943 73.4525V80.0234C241.466 80.0234 243.682 78.9256 245.047 76.6826L239.434 73.2661ZM238.943 73.4525C238.725 73.4525 238.675 73.4215 238.733 73.4424C238.764 73.4539 238.818 73.4778 238.884 73.5214C238.951 73.5656 239.016 73.621 239.074 73.6844L234.212 78.1045C235.54 79.5652 237.33 80.0234 238.943 80.0234V73.4525ZM239.271 73.9232C239.27 73.9211 239.268 73.9206 239.263 73.9047C239.257 73.8846 239.238 73.8142 239.238 73.6708H232.667C232.667 75.1515 233.072 76.6091 234.015 77.8658L239.271 73.9232ZM239.238 73.6708C239.238 73.6536 239.248 73.3947 239.547 72.8311L233.739 69.7566C233.118 70.931 232.667 72.2567 232.667 73.6708H239.238ZM239.582 72.7631C239.875 72.1764 240.23 71.7068 240.642 71.3244L236.171 66.5093C235.151 67.456 234.331 68.571 233.704 69.8245L239.582 72.7631ZM238.407 65.6314H238.177V72.2023H238.407V65.6314ZM238.177 65.6314C237.316 65.6314 236.384 65.7352 235.489 66.0706L237.797 72.2232C237.751 72.2404 237.752 72.2337 237.82 72.2235C237.888 72.2133 238.004 72.2023 238.177 72.2023V65.6314ZM235.349 66.127C234.534 66.4762 233.823 67.0109 233.233 67.5347L237.599 72.4459C237.75 72.3114 237.86 72.2278 237.929 72.1801C238.001 72.1305 238.003 72.1387 237.937 72.1667L235.349 66.127ZM233.174 67.5885C232.014 68.6716 231.138 70.0182 230.486 71.5174L236.512 74.1374C236.883 73.2851 237.285 72.7403 237.658 72.3922L233.174 67.5885ZM230.508 71.4679C229.946 72.7054 229.273 74.4067 228.497 76.5292L234.668 78.7869C235.425 76.7177 236.03 75.1986 236.49 74.1869L230.508 71.4679ZM228.504 76.5111C227.555 79.0585 226.706 81.061 225.96 82.553L231.837 85.4916C232.727 83.712 233.668 81.4717 234.661 78.8051L228.504 76.5111ZM225.924 82.6278C225.357 83.8375 224.535 84.941 223.413 85.9422L227.79 90.8437C229.531 89.289 230.907 87.4787 231.873 85.4168L225.924 82.6278ZM223.369 85.9822C222.551 86.7398 221.436 87.2903 219.846 87.5175L220.775 94.0224C223.479 93.6361 225.891 92.602 227.834 90.8037L223.369 85.9822ZM219.634 93.9849C222.055 94.4947 223.416 95.3795 224.179 96.3403L229.324 92.2539C227.327 89.7387 224.394 88.272 220.988 87.5549L219.634 93.9849ZM224.179 96.3403C224.828 97.1575 225.42 98.8442 225.235 102.084L231.795 102.459C232.019 98.5424 231.436 94.9127 229.324 92.2539L224.179 96.3403ZM225.231 102.195L225.077 108.789L231.646 108.942L231.8 102.348L225.231 102.195ZM225.081 108.684C224.993 110.283 225.395 111.951 226.621 113.299L231.483 108.879C231.516 108.915 231.549 108.96 231.577 109.01C231.606 109.06 231.624 109.105 231.634 109.138C231.654 109.204 231.634 109.189 231.642 109.048L225.081 108.684ZM226.729 113.413C227.849 114.533 229.295 115.142 230.892 115.142V108.571C230.934 108.571 231.035 108.58 231.159 108.632C231.282 108.683 231.354 108.745 231.375 108.766L226.729 113.413ZM230.892 115.142C233.064 115.142 235.005 114.316 236.501 112.732L231.724 108.22C231.483 108.476 231.276 108.571 230.892 108.571V115.142ZM236.498 112.736C237.888 111.268 238.895 109.223 239.676 106.937L233.457 104.814C232.807 106.719 232.178 107.741 231.728 108.216L236.498 112.736ZM239.683 106.914L240.987 103.004L234.753 100.926L233.449 104.836L239.683 106.914ZM237.87 105.25H239.403V98.6794H237.87V105.25ZM236.291 100.914L234.297 106.818L240.523 108.92L242.516 103.016L236.291 100.914ZM234.304 106.796C233.44 109.299 232.441 110.782 231.501 111.597L235.804 116.563C237.931 114.719 239.437 112.062 240.515 108.942L234.304 106.796ZM231.501 111.597C230.616 112.364 229.534 112.788 228.055 112.788V119.359C230.973 119.359 233.622 118.454 235.804 116.563L231.501 111.597ZM228.055 112.788C226.546 112.788 225.903 112.377 225.57 112.013L220.726 116.453C222.641 118.543 225.27 119.359 228.055 119.359V112.788ZM225.663 112.12C225.257 111.636 224.823 110.68 224.823 108.789H218.252C218.252 111.601 218.892 114.275 220.632 116.346L225.663 112.12ZM224.823 108.789C224.823 108.109 224.85 107.763 224.867 107.644L218.362 106.714C218.277 107.311 218.252 108.037 218.252 108.789H224.823ZM224.889 107.444L225.349 101.77L218.8 101.239L218.339 106.913L224.889 107.444ZM225.34 101.868C225.411 101.229 225.436 100.45 225.436 99.5878H218.865C218.865 100.361 218.84 100.86 218.809 101.142L225.34 101.868ZM225.436 99.5878C225.436 97.2307 225.085 95.0263 224.251 93.0796L218.211 95.668C218.604 96.5839 218.865 97.8554 218.865 99.5878H225.436ZM224.303 93.2085C223.562 91.2551 222.328 89.447 220.323 88.4447L217.385 94.3219C217.425 94.342 217.775 94.5275 218.159 95.539L224.303 93.2085ZM218.057 88.196C215.825 88.7541 214.53 88.9413 213.946 88.9413V95.5123C215.407 95.5123 217.385 95.1372 219.651 94.5707L218.057 88.196ZM213.946 88.9413C213.69 88.9413 213.555 88.9215 213.511 88.9128C213.462 88.9031 213.583 88.9187 213.784 89.0375C214.005 89.169 214.294 89.4119 214.511 89.799C214.726 90.1827 214.778 90.5418 214.778 90.7699H208.207C208.207 92.3849 208.997 93.8376 210.429 94.6876C211.591 95.3776 212.911 95.5123 213.946 95.5123V88.9413ZM214.778 90.7699C214.778 90.9812 214.732 91.3261 214.528 91.7022C214.319 92.085 214.036 92.3361 213.804 92.4785C213.593 92.6075 213.457 92.6293 213.487 92.6231C213.514 92.6176 213.631 92.5985 213.87 92.5985V86.0276C212.849 86.0276 211.531 86.1649 210.37 86.8761C208.947 87.7482 208.207 89.204 208.207 90.7699H214.778ZM213.87 92.5985C214.645 92.5985 215.949 92.7785 217.904 93.2672L219.497 86.8924C217.363 86.3588 215.446 86.0276 213.87 86.0276V92.5985ZM218.998 93.3518C221.756 93.1011 224.263 92.2243 226.275 90.5106L222.014 85.5085C221.265 86.1462 220.144 86.6496 218.403 86.8078L218.998 93.3518ZM226.283 90.504C228.033 89.004 229.422 87.2433 230.399 85.2233L224.484 82.3612C223.928 83.5105 223.119 84.5614 222.006 85.515L226.283 90.504ZM230.417 85.1867C231.253 83.402 232.115 81.1829 233.006 78.5623L226.785 76.4471C225.938 78.9384 225.164 80.911 224.467 82.3978L230.417 85.1867ZM233.012 78.5437C233.708 76.457 234.329 74.8442 234.872 73.6674L228.906 70.9138C228.222 72.3952 227.514 74.2585 226.779 76.4658L233.012 78.5437ZM234.828 73.76C235.343 72.7293 235.898 72.015 236.449 71.5258L232.083 66.6146C230.793 67.7612 229.764 69.1939 228.95 70.8213L234.828 73.76ZM236.308 71.6443C237.326 70.8366 238.16 70.5921 238.867 70.5921V64.0211C236.404 64.0211 234.171 64.9524 232.224 66.496L236.308 71.6443ZM202.162 106.115C201.728 107.947 201.383 109.605 201.383 110.629H207.954C207.954 110.672 207.96 110.474 208.072 109.862C208.173 109.312 208.332 108.573 208.556 107.629L202.162 106.115ZM201.383 110.629C201.383 112.451 202.06 114.609 204.273 115.715L207.211 109.838C207.331 109.898 207.467 109.989 207.596 110.118C207.724 110.246 207.816 110.382 207.875 110.502C207.989 110.729 207.954 110.822 207.954 110.629H201.383ZM204.353 115.754C205.757 116.409 207.72 116.645 209.714 116.748L210.051 110.185C209.131 110.138 208.42 110.064 207.892 109.976C207.331 109.883 207.127 109.797 207.131 109.799L204.353 115.754ZM206.661 112.822L206.354 114.356L212.798 115.644L213.104 114.111L206.661 112.822ZM209.79 111.721C207.333 111.561 204.005 111.484 199.838 111.484V118.055C203.952 118.055 207.116 118.132 209.362 118.279L209.79 111.721ZM199.838 111.484C195.573 111.484 192.238 111.561 189.876 111.722L190.323 118.278C192.459 118.132 195.617 118.055 199.838 118.055V111.484ZM193.287 115.797L193.671 114.263L187.296 112.67L186.912 114.203L193.287 115.797ZM190.671 116.747C192.535 116.64 194.243 116.417 195.564 115.951L193.377 109.755C192.959 109.902 192.009 110.088 190.296 110.186L190.671 116.747ZM195.509 115.97C197.215 115.401 198.553 114.279 199.449 112.755L193.786 109.424C193.66 109.638 193.566 109.691 193.431 109.736L195.509 115.97ZM199.421 112.803C200.228 111.482 200.861 109.719 201.399 107.729L195.056 106.015C194.571 107.808 194.132 108.857 193.814 109.376L199.421 112.803ZM201.403 107.714L209.454 77.35L203.103 75.6659L195.052 106.03L201.403 107.714ZM209.477 77.2604C209.883 75.5341 210.178 73.9683 210.178 72.8274H203.607C203.607 73.1178 203.492 74.0057 203.081 75.7554L209.477 77.2604ZM210.178 72.8274C210.178 70.9246 209.447 68.7071 207.131 67.6265L204.353 73.581C204.241 73.5288 204.106 73.4446 203.975 73.3194C203.844 73.1938 203.749 73.0587 203.686 72.9374C203.568 72.708 203.607 72.616 203.607 72.8274H210.178ZM207.211 67.6651C205.817 66.968 203.853 66.7341 201.927 66.6327L201.582 73.1946C202.475 73.2416 203.154 73.3147 203.648 73.4002C204.181 73.4925 204.331 73.5717 204.273 73.5424L207.211 67.6651ZM204.942 70.7105L205.326 69.1769L198.951 67.5833L198.567 69.1168L204.942 70.7105ZM201.898 71.6568C204.12 71.8194 207.467 71.8956 211.876 71.8956V65.3247C207.493 65.3247 204.348 65.2475 202.378 65.1034L201.898 71.6568ZM211.876 71.8956C215.996 71.8956 219.344 71.8186 221.896 71.6592L221.486 65.101C219.13 65.2483 215.936 65.3247 211.876 65.3247V71.8956ZM218.504 67.5833L218.12 69.1168L224.495 70.7105L224.878 69.1769L218.504 67.5833ZM221.13 66.633C219.168 66.739 217.403 66.9597 216.051 67.4102L218.129 73.6439C218.618 73.481 219.664 73.2927 221.485 73.1943L221.13 66.633ZM215.997 67.4289C214.359 68.0069 213.091 69.1061 212.185 70.5058L217.702 74.0755C217.921 73.7372 218.083 73.6606 218.184 73.6252L215.997 67.4289ZM212.111 70.6248C211.362 71.8987 210.76 73.6662 210.232 75.6718L216.587 77.344C217.082 75.4646 217.502 74.4206 217.775 73.9564L212.111 70.6248ZM210.234 75.6659L202.183 106.03L208.534 107.714L216.585 77.35L210.234 75.6659ZM295.058 68.3801L298.104 69.6115L300.023 64.8656L294.909 65.098L295.058 68.3801ZM292.298 76.6613L289.133 75.7793L289.125 75.8089L289.117 75.8386L292.298 76.6613ZM290.994 82.182V85.4675H293.844L294.247 82.6467L290.994 82.182ZM289.231 82.182L286.012 81.5236L285.205 85.4675H289.231V82.182ZM288.004 71.6005L285.964 74.1765L285.99 74.1967L286.016 74.2163L288.004 71.6005ZM271.978 70.6037L272.857 73.7693L272.938 73.747L273.017 73.7206L271.978 70.6037ZM269.755 72.2906L266.996 70.5058L266.958 70.5645L266.923 70.6248L269.755 72.2906ZM268.221 76.5079L271.394 77.3608L271.396 77.3524L271.398 77.344L268.221 76.5079ZM264.387 90.7699L261.214 89.917L260.102 94.0554H264.387V90.7699ZM276.809 88.3929L274.22 86.3702L274.215 86.3759L274.211 86.3816L276.809 88.3929ZM280.183 82.182V78.8966H277.933L277.119 80.9942L280.183 82.182ZM281.946 82.182L285.059 83.2341L286.525 78.8966H281.946V82.182ZM279.186 91.5367L282.356 92.4012L282.371 92.3454L282.384 92.2892L279.186 91.5367ZM278.726 93.2236L275.556 92.3591L275.552 92.3733L275.548 92.3875L278.726 93.2236ZM277.116 100.891V104.177H279.974L280.369 101.345L277.116 100.891ZM275.352 100.891L272.111 100.351L271.474 104.177H275.352V100.891ZM275.582 99.2811L272.325 98.8469V98.8469L275.582 99.2811ZM274.508 93.6837L271.985 95.787L272.048 95.8632L272.116 95.9354L274.508 93.6837ZM263.927 92.3035V89.018H261.407L260.754 91.4517L263.927 92.3035ZM260.016 106.872L256.843 106.02L256.831 106.068L256.819 106.115L260.016 106.872ZM260.4 112.776L258.931 115.715L259.053 115.776L259.18 115.827L260.4 112.776ZM277.116 111.933L275.744 108.947L275.728 108.955L275.713 108.962L277.116 111.933ZM282.023 107.716L279.378 105.767L279.361 105.79L279.345 105.813L282.023 107.716ZM286.087 99.6645V96.379H283.806L283.009 98.5159L286.087 99.6645ZM287.85 99.6645L290.961 100.721L292.436 96.379H287.85V99.6645ZM286.01 105.952L289.159 106.888L289.199 106.754L289.227 106.618L286.01 105.952ZM284.093 115L283.953 118.282L286.839 118.406L287.331 115.56L284.093 115ZM244.604 115L241.417 114.203L240.362 118.421L244.708 118.284L244.604 115ZM244.988 113.466L244.805 110.186L242.388 110.32L241.8 112.67L244.988 113.466ZM249.128 112.853L250.167 115.97L249.128 112.853ZM251.275 111.089L248.517 109.305L248.479 109.363L248.443 109.424L251.275 111.089ZM252.885 106.872L249.714 106.015L249.711 106.026L249.708 106.036L252.885 106.872ZM261.09 76.5079L264.262 77.3649L264.275 77.3152L264.287 77.2651L261.09 76.5079ZM260.63 70.6037L259.161 73.5424L259.2 73.5622L259.24 73.581L260.63 70.6037ZM256.643 69.9136L253.455 69.1168L252.488 72.985L256.47 73.1946L256.643 69.9136ZM257.026 68.3801L257.131 65.0963L254.482 65.0117L253.839 67.5833L257.026 68.3801ZM278.419 71.8956C286.141 71.8956 291.752 71.8192 295.207 71.6622L294.909 65.098C291.616 65.2477 286.135 65.3247 278.419 65.3247V71.8956ZM292.012 67.1487C290.985 69.6894 290.027 72.5702 289.133 75.7793L295.463 77.5433C296.306 74.5158 297.189 71.8759 298.104 69.6115L292.012 67.1487ZM289.117 75.8386C288.369 78.7303 287.876 80.778 287.742 81.7174L294.247 82.6467C294.317 82.1547 294.693 80.5219 295.478 77.4839L289.117 75.8386ZM290.994 78.8966H289.231V85.4675H290.994V78.8966ZM292.449 82.8404C292.932 80.4787 293.206 78.3738 293.206 76.5846H286.635C286.635 77.7603 286.449 79.387 286.012 81.5236L292.449 82.8404ZM293.206 76.5846C293.206 73.7048 292.416 70.827 289.992 68.9848L286.016 74.2163C286.148 74.3166 286.635 74.7615 286.635 76.5846H293.206ZM290.043 69.0246C287.907 67.3335 284.849 66.8582 281.716 66.8582V73.4291C284.513 73.4291 285.647 73.9251 285.964 74.1765L290.043 69.0246ZM281.716 66.8582H276.119V73.4291H281.716V66.8582ZM276.119 66.8582C274.183 66.8582 272.373 67.0089 270.939 67.4869L273.017 73.7206C273.424 73.5851 274.374 73.4291 276.119 73.4291V66.8582ZM271.099 67.4381C269.337 67.9275 267.955 69.0236 266.996 70.5058L272.513 74.0755C272.678 73.8197 272.779 73.7911 272.857 73.7693L271.099 67.4381ZM266.923 70.6248C266.173 71.8987 265.571 73.6662 265.044 75.6718L271.398 77.344C271.893 75.4646 272.313 74.4206 272.586 73.9564L266.923 70.6248ZM265.048 75.655L261.214 89.917L267.56 91.6228L271.394 77.3608L265.048 75.655ZM264.387 94.0554H271.518V87.4845H264.387V94.0554ZM271.518 94.0554C274.665 94.0554 277.46 92.9183 279.407 90.4042L274.211 86.3816C273.704 87.0369 272.972 87.4845 271.518 87.4845V94.0554ZM279.398 90.4156C280.922 88.4644 282.191 86.0914 283.246 83.3698L277.119 80.9942C276.232 83.2822 275.251 85.0499 274.22 86.3702L279.398 90.4156ZM280.183 85.4675H281.946V78.8966H280.183V85.4675ZM278.834 81.1299C277.586 84.8198 276.633 88.0433 275.988 90.7842L282.384 92.2892C282.966 89.816 283.852 86.8031 285.059 83.2341L278.834 81.1299ZM276.016 90.6722L275.556 92.3591L281.895 94.0881L282.356 92.4012L276.016 90.6722ZM275.548 92.3875C274.759 95.3858 274.191 98.0743 273.862 100.437L280.369 101.345C280.653 99.3123 281.159 96.8889 281.903 94.0597L275.548 92.3875ZM277.116 97.6059H275.352V104.177H277.116V97.6059ZM278.593 101.431C278.654 101.066 278.737 100.481 278.839 99.7153L272.325 98.8469C272.223 99.6149 272.152 100.103 272.111 100.351L278.593 101.431ZM278.839 99.7153C278.953 98.8539 279.021 98.0375 279.021 97.2875H272.45C272.45 97.6621 272.415 98.1748 272.325 98.8469L278.839 99.7153ZM279.021 97.2875C279.021 95.1644 278.442 93.0694 276.901 91.4319L272.116 95.9354C272.211 96.036 272.45 96.3435 272.45 97.2875H279.021ZM277.032 91.5804C275.314 89.5186 272.647 89.018 270.291 89.018V95.5889C271.089 95.5889 271.583 95.6814 271.857 95.771C272.111 95.8542 272.08 95.9011 271.985 95.787L277.032 91.5804ZM270.291 89.018H263.927V95.5889H270.291V89.018ZM260.754 91.4517L256.843 106.02L263.19 107.724L267.1 93.1552L260.754 91.4517ZM256.819 106.115C256.584 107.111 256.398 107.959 256.27 108.644C256.155 109.253 256.041 109.959 256.041 110.553H262.612C262.612 110.636 262.612 110.472 262.728 109.855C262.83 109.313 262.989 108.576 263.213 107.629L256.819 106.115ZM256.041 110.553C256.041 112.343 256.665 114.582 258.931 115.715L261.869 109.838C262.004 109.905 262.148 110.005 262.281 110.14C262.412 110.275 262.499 110.412 262.553 110.524C262.653 110.731 262.612 110.792 262.612 110.553H256.041ZM259.18 115.827C260.596 116.393 262.557 116.522 264.54 116.522V109.951C263.617 109.951 262.903 109.915 262.373 109.856C261.806 109.793 261.605 109.72 261.62 109.726L259.18 115.827ZM264.54 116.522H270.138V109.951H264.54V116.522ZM270.138 116.522C273.26 116.522 276.105 116.043 278.518 114.904L275.713 108.962C274.445 109.561 272.638 109.951 270.138 109.951V116.522ZM278.487 114.918C280.973 113.776 283.037 111.961 284.701 109.619L279.345 105.813C278.249 107.355 277.041 108.352 275.744 108.947L278.487 114.918ZM284.668 109.665C286.347 107.385 287.829 104.393 289.165 100.813L283.009 98.5159C281.788 101.786 280.561 104.161 279.378 105.767L284.668 109.665ZM286.087 102.95H287.85V96.379H286.087V102.95ZM284.739 98.608C283.807 101.354 283.141 103.602 282.793 105.286L289.227 106.618C289.492 105.337 290.054 103.394 290.961 100.721L284.739 98.608ZM282.861 105.016C282.24 107.104 281.575 110.281 280.856 114.44L287.331 115.56C288.043 111.438 288.656 108.583 289.159 106.888L282.861 105.016ZM284.234 111.718C280.578 111.561 274.51 111.484 266.074 111.484V118.055C274.507 118.055 280.451 118.132 283.953 118.282L284.234 111.718ZM266.074 111.484C256.608 111.484 249.41 111.561 244.501 111.716L244.708 118.284C249.511 118.132 256.626 118.055 266.074 118.055V111.484ZM247.792 115.797L248.175 114.263L241.8 112.67L241.417 114.203L247.792 115.797ZM245.17 116.747C247.09 116.64 248.823 116.418 250.167 115.97L248.089 109.736C247.593 109.901 246.566 110.088 244.805 110.186L245.17 116.747ZM250.167 115.97C251.873 115.401 253.211 114.279 254.107 112.755L248.443 109.424C248.317 109.638 248.224 109.691 248.089 109.736L250.167 115.97ZM254.034 112.874C254.888 111.553 255.53 109.733 256.063 107.708L249.708 106.036C249.219 107.896 248.787 108.887 248.517 109.305L254.034 112.874ZM256.057 107.729L264.262 77.3649L257.918 75.6509L249.714 106.015L256.057 107.729ZM264.287 77.2651C264.721 75.4333 265.066 73.7754 265.066 72.7507H258.495C258.495 72.7077 258.489 72.9057 258.376 73.5182C258.275 74.068 258.116 74.8071 257.893 75.7507L264.287 77.2651ZM265.066 72.7507C265.066 71.8407 264.905 70.8213 264.389 69.8574C263.847 68.8464 263.017 68.0919 262.019 67.6265L259.24 73.581C259.143 73.5356 259.018 73.4594 258.891 73.3411C258.763 73.2217 258.665 73.0885 258.596 72.9603C258.463 72.712 258.495 72.5872 258.495 72.7507H265.066ZM262.099 67.6651C260.705 66.968 258.741 66.7341 256.815 66.6327L256.47 73.1946C257.363 73.2416 258.042 73.3147 258.536 73.4002C259.069 73.4925 259.219 73.5717 259.161 73.5424L262.099 67.6651ZM259.83 70.7105L260.213 69.1769L253.839 67.5833L253.455 69.1168L259.83 70.7105ZM256.921 71.6639C261.78 71.819 268.954 71.8956 278.419 71.8956V65.3247C268.971 65.3247 261.882 65.2479 257.131 65.0963L256.921 71.6639Z" fill="#F4E5FF" mask="url(#path-3-outside-1_2013_175)"/>
</svg>
