<svg width="255" height="254" viewBox="0 0 255 254" fill="none" xmlns="http://www.w3.org/2000/svg">
<path d="M60.519 146.989C63.9723 146.724 67.2147 145.857 70.1641 144.506L70.1666 144.509L70.1954 144.492C70.3301 144.43 70.4632 144.366 70.5965 144.302C71.6897 143.857 74.8137 143.069 79.2619 145.974C79.3315 138.304 79.5418 130.474 79.9156 122.218C80.5277 108.698 91.0688 97.7901 104.456 96.6449C113.105 94.7042 122.004 95.7944 129.778 99.4096C130.451 96.5127 130.861 94.9828 130.861 94.9828H130.862C131.34 93.0997 134.479 91.4652 139.468 90.2238C134.278 87.4854 130.007 81.5685 125.202 73.3984C124.352 71.954 123.569 70.576 122.848 69.2484C120.287 68.4572 117.344 67.0164 114.156 64.5385C113.971 64.3921 113.788 64.2441 113.6 64.1019L113.486 64.0118C113.282 63.846 113.072 63.699 112.859 63.5615C107.276 59.5852 100.398 57.4529 93.2079 58.0061C81.6479 58.8955 72.426 66.4725 68.8004 76.7143L68.7997 76.7131L68.796 76.7265C68.7229 76.9333 68.6578 77.1434 68.5893 77.3523C67.7537 79.6672 64.2222 87.5249 54.7325 87.6616L54.7324 87.6694C54.4321 87.6833 54.1324 87.6922 53.8307 87.7155C37.691 88.9568 26.1042 103.233 27.951 119.601C29.7978 135.969 44.3789 148.231 60.519 146.989Z" fill="#F4E5FF"/>
<path d="M174.185 101.793C173.423 101.924 172.677 102.03 171.941 102.122C178.785 106.573 184.343 113.187 187.414 121.553C191.601 132.955 195.041 142.776 197.869 151.165C203.13 138.956 197.527 124.853 191.839 113.849C191.518 113.229 192.455 112.68 192.776 113.301C198.684 124.73 204.263 139.116 198.791 151.754C198.648 152.083 198.334 152.095 198.098 151.945C197.179 153.905 195.974 155.79 194.413 157.565C185.063 168.195 169.717 169.479 156.038 169.062C156.007 169.397 155.733 169.567 155.466 169.568L153.829 195.5C154.101 195.499 154.361 195.673 154.339 196.022L154.338 196.035C172.876 196.554 192.578 193.731 207.247 182.395C207.099 182.191 207.078 181.856 207.288 181.69C209.507 179.934 211.581 178.003 213.487 175.911C213.721 175.655 214.025 175.715 214.218 175.903C214.796 175.254 215.364 174.59 215.917 173.902C233.782 151.664 227.798 123.265 215.685 99.9107C213.734 96.1496 210.877 94.1218 207.788 93.4107C202.966 91.4984 195.529 89.8811 186.652 88.8608C187.458 92.2925 187.907 94.5834 187.987 95.0519C188.39 97.3927 182.211 100.411 174.185 101.793Z" fill="#3C1C56"/>
<path d="M208.056 182.458C207.944 182.546 207.813 182.601 207.682 182.609C208.795 186.625 209.404 189.111 209.663 190.217L209.765 190.182C211.879 189.424 213.11 188.479 213.242 187.354C213.242 187.354 213.575 183.431 213.966 176.984C212.138 178.957 210.165 180.789 208.056 182.458Z" fill="#3C1C56"/>
<path d="M130.481 99.5722C130.79 99.3938 131.082 99.5507 131.215 99.7931C134.383 98.0715 137.937 96.9683 141.719 96.6447C147.358 95.3794 153.102 95.402 158.574 96.5732C158.408 94.6824 158.2 92.1237 157.981 89.125C157.707 89.2169 157.505 89.0861 157.403 88.8886C149.866 92.5605 144.271 92.7571 139.469 90.2237C134.479 91.4651 131.34 93.0996 130.862 94.9827H130.861C130.861 94.9827 130.451 96.5126 129.778 99.4095C129.963 99.4957 130.151 99.5756 130.335 99.6647L130.481 99.5722Z" fill="#3C1C56"/>
<path d="M92.8497 220.396C91.6064 218.417 89.6323 217.124 87.3933 217.108C83.619 217.079 80.5306 220.669 80.448 225.147H108.454L108.668 207.532H91.8114L92.8497 220.396Z" fill="black"/>
<path d="M116.193 134.258C116.305 130.244 116.428 126.227 116.635 122.218C116.798 119.063 117.45 115.956 118.654 113.032C120.967 107.415 125.099 102.728 130.335 99.6647C130.151 99.5757 129.963 99.4957 129.777 99.4095C122.004 95.7943 113.104 94.704 104.456 96.6448C91.0686 97.79 80.5276 108.698 79.9156 122.218C79.5417 130.474 79.3316 138.304 79.2618 145.974C79.0786 166.11 79.8953 185.105 81.4998 207.532H91.8113H108.668H115.807L117.012 188.43C116.863 185.662 116.722 182.894 116.601 180.124C115.931 164.844 115.769 149.547 116.193 134.258Z" fill="#AE2BCF"/>
<path d="M139.469 90.2237C144.271 92.7571 149.866 92.5606 157.403 88.8886C157.262 88.6138 157.321 88.2097 157.7 88.0767C161.802 86.6408 165.657 84.5858 169.149 82.0012C169.712 81.5846 170.253 82.5276 169.698 82.9389C166.129 85.5799 162.179 87.6572 157.989 89.1238L157.981 89.1249C158.2 92.1236 158.408 94.6821 158.574 96.5731C163.322 97.5895 167.86 99.4686 171.941 102.122C172.677 102.029 173.423 101.924 174.185 101.793C182.211 100.411 188.391 97.3926 187.987 95.0516C187.907 94.5831 187.458 92.2923 186.652 88.8606C184.758 80.7985 180.882 66.4256 175.122 54.4842C177.114 54.7117 179.193 54.3287 181.054 53.2339C185.612 50.5533 187.134 44.6847 184.453 40.1266C181.773 35.5685 175.904 34.0464 171.346 36.7272C169.656 37.7213 168.386 39.1548 167.59 40.7962C166.554 42.9323 166.335 45.4195 167.046 47.7581C163.401 48.6741 154.719 49.2638 151.748 35.4041C151.748 35.4041 136.978 58.1763 118.042 56.7077V56.7071C118.535 60.381 120.248 64.4566 122.849 69.248C123.569 70.5756 124.353 71.9537 125.202 73.3981C130.007 81.5682 134.278 87.4853 139.469 90.2237ZM135.428 82.9944C132.81 82.9944 130.687 80.872 130.687 78.2542C130.687 75.6363 132.81 73.5139 135.428 73.5139C138.046 73.5139 140.168 75.6362 140.168 78.2542C140.168 80.872 138.046 82.9944 135.428 82.9944ZM153.153 70.9423C153.675 70.4808 154.446 71.2466 153.921 71.7103C152.073 73.3436 151.164 75.8117 151.483 78.2541C151.521 78.547 151.204 78.7971 150.94 78.7971C150.619 78.7971 150.435 78.5448 150.397 78.2541C150.045 75.5584 151.118 72.7405 153.153 70.9423ZM173.549 41.0704C174.916 40.1128 176.788 40.2693 178.189 41.0714C179.694 41.9325 180.671 43.4671 181.4 44.9921C181.701 45.6202 180.764 46.1705 180.463 45.5403C179.851 44.2617 179.083 42.9486 177.871 42.1536C177.873 42.2471 177.858 42.3389 177.8 42.4151C176.776 43.7435 176.48 45.4928 177.036 47.0781C177.133 47.3561 176.925 47.6724 176.657 47.746C176.36 47.8276 176.086 47.6434 175.989 47.3668C175.35 45.5433 175.681 43.3997 176.862 41.8669L177.006 41.7229C176.045 41.3778 174.964 41.4016 174.097 42.0084C173.523 42.4104 172.98 41.4684 173.549 41.0704ZM158.333 59.2204C161.376 59.2204 163.842 61.687 163.842 64.7296C163.842 67.7724 161.376 70.2389 158.333 70.2389C155.29 70.2389 152.824 67.7724 152.824 64.7296C152.824 61.687 155.29 59.2204 158.333 59.2204ZM149.555 64.7824C148.914 65.7021 147.682 65.7055 146.81 65.1164C145.98 64.556 145.316 63.6852 144.796 62.8408C144.263 61.975 143.871 61.0177 143.635 60.0292C143.472 59.3487 144.52 59.061 144.682 59.7405C144.93 60.7768 145.353 61.7478 145.952 62.63C146.246 63.0637 146.582 63.4702 146.957 63.8367C147.282 64.1541 147.701 64.4926 148.185 64.4466C149.094 64.3603 148.948 62.8357 148.902 62.2278C148.817 61.11 148.457 60.025 147.893 59.0594C147.539 58.4541 148.478 57.908 148.83 58.5112C149.459 59.5872 149.84 60.776 149.969 62.0145C150.061 62.9051 150.092 64.0131 149.555 64.7824ZM140.442 54.5011C143.097 56.0406 146.457 55.7411 148.771 53.7113C149.294 53.2516 150.065 54.0174 149.539 54.4791C146.858 56.8313 142.988 57.2328 139.894 55.4387C139.288 55.0879 139.836 54.1497 140.442 54.5011ZM139.674 63.0868C140.109 65.5445 140.485 68.0222 140.986 70.4673C141.198 71.501 141.6 72.3356 142.58 72.8183C143.41 73.2272 144.378 73.3354 145.287 73.4266C145.977 73.4959 145.982 74.5824 145.287 74.5127C143.198 74.3031 140.947 73.8363 140.166 71.6165C139.723 70.3592 139.612 68.9412 139.381 67.6332C139.129 66.2139 138.878 64.7946 138.626 63.3754C138.505 62.6909 139.552 62.3997 139.674 63.0868ZM131.993 70.6985C132.317 71.016 132.736 71.3544 133.221 71.3084C134.129 71.2221 133.984 69.6974 133.937 69.0895C133.852 67.9717 133.492 66.8867 132.928 65.9211C132.574 65.3158 133.514 64.7697 133.866 65.3729C134.495 66.4489 134.876 67.6377 135.004 68.8762C135.097 69.7665 135.128 70.8747 134.591 71.644C133.95 72.5638 132.718 72.567 131.845 71.978C131.015 71.4177 130.351 70.5466 129.831 69.7025C129.298 68.8365 128.907 67.8793 128.67 66.8908C128.508 66.2103 129.555 65.9227 129.718 66.6021C129.965 67.6383 130.389 68.6094 130.987 69.4917C131.281 69.9255 131.618 70.3321 131.993 70.6985ZM124.068 66.0728C126.795 65.4062 128.848 63.0631 129.074 60.2491C129.13 59.5559 130.216 59.5523 130.16 60.2491C129.897 63.5367 127.576 66.3332 124.357 67.1201C123.677 67.2864 123.39 66.2387 124.068 66.0728Z" fill="#F5AA9F"/>
<path d="M140.165 71.6166C140.946 73.8364 143.198 74.3033 145.286 74.5129C145.981 74.5825 145.977 73.496 145.286 73.4267C144.378 73.3355 143.41 73.2273 142.58 72.8184C141.6 72.3358 141.197 71.5012 140.985 70.4674C140.484 68.0222 140.109 65.5447 139.673 63.0869C139.552 62.3999 138.505 62.6911 138.626 63.3756C138.877 64.7949 139.129 66.2142 139.38 67.6334C139.612 68.9414 139.723 70.3593 140.165 71.6166Z" fill="#8A2121"/>
<path d="M139.894 55.4388C142.988 57.2329 146.858 56.8315 149.539 54.4793C150.065 54.0174 149.294 53.2518 148.771 53.7114C146.457 55.7413 143.097 56.0407 140.442 54.5012C139.836 54.1497 139.288 55.0879 139.894 55.4388Z" fill="#8A2121"/>
<path d="M124.357 67.1202C127.575 66.3333 129.896 63.5368 130.16 60.2491C130.216 59.5524 129.13 59.556 129.074 60.2491C128.848 63.0631 126.795 65.4062 124.068 66.0728C123.39 66.2387 123.677 67.2864 124.357 67.1202Z" fill="#8A2121"/>
<path d="M147.893 59.0596C148.457 60.025 148.816 61.1101 148.902 62.228C148.948 62.8358 149.093 64.3604 148.185 64.4467C147.701 64.4928 147.282 64.1543 146.957 63.8368C146.582 63.4703 146.246 63.0638 145.952 62.6302C145.353 61.7479 144.93 60.7769 144.682 59.7406C144.52 59.0611 143.472 59.3489 143.635 60.0294C143.871 61.0178 144.263 61.9752 144.796 62.8409C145.315 63.6853 145.98 64.5561 146.81 65.1165C147.682 65.7056 148.914 65.7022 149.555 64.7826C150.092 64.0133 150.061 62.9051 149.969 62.0148C149.84 60.7763 149.459 59.5874 148.83 58.5115C148.478 57.9082 147.539 58.4542 147.893 59.0596Z" fill="#8A2121"/>
<path d="M129.718 66.6022C129.555 65.9228 128.508 66.2104 128.67 66.8909C128.906 67.8794 129.298 68.8366 129.831 69.7026C130.351 70.5467 131.015 71.4178 131.845 71.9781C132.717 72.5671 133.949 72.5638 134.591 71.6441C135.128 70.8748 135.096 69.7667 135.004 68.8764C134.876 67.6378 134.494 66.449 133.866 65.373C133.513 64.7697 132.574 65.3158 132.928 65.9212C133.492 66.8869 133.852 67.9718 133.937 69.0897C133.983 69.6974 134.129 71.2222 133.22 71.3085C132.736 71.3545 132.317 71.0161 131.993 70.6986C131.618 70.3321 131.281 69.9256 130.987 69.492C130.389 68.6096 129.965 67.6386 129.718 66.6022Z" fill="#8A2121"/>
<path d="M150.94 78.7972C151.203 78.7972 151.521 78.5471 151.483 78.2543C151.164 75.8119 152.072 73.3438 153.921 71.7105C154.445 71.2468 153.675 70.481 153.153 70.9425C151.118 72.7406 150.045 75.5586 150.396 78.2544C150.435 78.5449 150.619 78.7972 150.94 78.7972Z" fill="#8A2121"/>
<path d="M163.698 66.0065C164.398 63.0453 162.564 60.078 159.603 59.3788C156.642 58.6796 153.674 60.5133 152.975 63.4744C152.276 66.4355 154.11 69.4028 157.071 70.102C160.032 70.8012 162.999 68.9676 163.698 66.0065Z" fill="#EB806E"/>
<path d="M135.887 82.9736C138.492 82.7158 140.395 80.3949 140.137 77.7898C139.879 75.1847 137.558 73.2819 134.953 73.5397C132.348 73.7976 130.445 76.1185 130.703 78.7236C130.961 81.3287 133.282 83.2315 135.887 82.9736Z" fill="#EB806E"/>
<path d="M157.981 89.1252L157.989 89.1241C162.179 87.6574 166.129 85.5802 169.697 82.9391C170.253 82.5279 169.712 81.5848 169.149 82.0014C165.657 84.5861 161.802 86.641 157.7 88.0769C157.32 88.2098 157.262 88.6139 157.403 88.8889C157.505 89.0861 157.707 89.2171 157.981 89.1252Z" fill="#8A2121"/>
<path d="M207.682 182.609C207.543 182.618 207.405 182.575 207.288 182.458L207.247 182.395C192.578 193.731 172.876 196.554 154.338 196.035C154.308 196.513 154.278 196.992 154.248 197.47C154.036 200.824 153.824 204.178 153.612 207.532C153.594 207.826 153.377 208.075 153.069 208.075C150.69 208.075 148.31 208.075 145.931 208.075L145.924 208.074L145.791 219.047C152.455 222.664 160.677 224.258 169.578 224.258C190.851 224.258 208.257 215.176 209.71 191.014L209.82 190.906C209.82 190.906 209.793 190.78 209.74 190.553C209.747 190.427 209.759 190.308 209.765 190.182L209.663 190.217C209.404 189.112 208.795 186.625 207.682 182.609Z" fill="#AE2BCF"/>
<path d="M145.924 208.074C145.579 208.07 145.406 207.802 145.406 207.532H129.074L130.112 220.396C128.869 218.417 126.895 217.124 124.656 217.107C120.882 217.079 117.793 220.669 117.711 225.147H145.716L145.791 219.047L145.924 208.074Z" fill="black"/>
<path d="M145.407 207.532C145.407 207.261 145.582 206.989 145.931 206.989C148.141 206.989 150.351 206.989 152.561 206.989C152.58 206.687 152.599 206.386 152.618 206.084C152.83 202.73 153.041 199.376 153.253 196.022C153.275 195.674 153.557 195.5 153.829 195.5L155.466 169.568C155.194 169.568 154.934 169.394 154.956 169.045C155.055 167.475 155.154 165.905 155.253 164.335C155.685 157.494 156.117 150.653 156.549 143.811C156.82 139.519 157.091 135.227 157.362 130.934C157.406 130.239 158.492 130.237 158.448 130.934C158.349 132.505 158.25 134.075 158.15 135.645C157.719 142.486 157.287 149.327 156.855 156.169C156.584 160.461 156.313 164.753 156.042 169.045L156.038 169.062C169.717 169.479 185.063 168.195 194.413 157.565C195.974 155.79 197.179 153.905 198.098 151.945C197.874 151.803 197.719 151.515 197.853 151.206L197.869 151.165C195.041 142.776 191.601 132.956 187.414 121.553C184.343 113.187 178.785 106.573 171.941 102.122C167.86 99.4689 163.322 97.5898 158.574 96.5734C153.102 95.4021 147.357 95.3795 141.719 96.6449C137.937 96.9684 134.384 98.0715 131.215 99.7933C131.344 100.027 131.326 100.339 131.029 100.51C124.878 104.058 120.314 109.938 118.531 116.828C117.621 120.343 117.634 123.984 117.498 127.589C117.352 131.464 117.239 135.341 117.161 139.218C117.013 146.619 116.998 154.023 117.118 161.426C117.367 176.814 118.21 192.183 119.306 207.532H129.074L145.407 207.532Z" fill="#AE2BCF"/>
<path d="M117.118 161.425C116.998 154.023 117.013 146.619 117.161 139.217C117.238 135.34 117.352 131.464 117.498 127.589C117.634 123.984 117.621 120.343 118.531 116.828C120.314 109.938 124.878 104.058 131.029 100.51C131.326 100.339 131.344 100.026 131.215 99.7931C131.082 99.5507 130.79 99.3938 130.481 99.5722L130.335 99.6646C125.099 102.728 120.966 107.415 118.654 113.032C117.45 115.956 116.798 119.063 116.635 122.217C116.428 126.227 116.305 130.244 116.193 134.258C115.769 149.547 115.931 164.844 116.601 180.124C116.722 182.893 116.863 185.662 117.012 188.43C117.357 194.801 117.765 201.168 118.22 207.532C118.269 208.225 119.356 208.231 119.306 207.532C118.21 192.183 117.367 176.813 117.118 161.425Z" fill="#F4E5FF"/>
<path d="M156.855 156.169C157.287 149.327 157.719 142.486 158.15 135.645C158.25 134.075 158.349 132.505 158.448 130.934C158.492 130.237 157.406 130.239 157.362 130.934C157.091 135.227 156.82 139.519 156.549 143.811C156.117 150.653 155.685 157.494 155.253 164.335C155.154 165.905 155.055 167.475 154.956 169.045C154.934 169.394 155.194 169.568 155.466 169.568C155.733 169.567 156.007 169.397 156.038 169.062L156.042 169.045C156.313 164.753 156.584 160.461 156.855 156.169Z" fill="#F4E5FF"/>
<path d="M153.253 196.022C153.041 199.376 152.83 202.73 152.618 206.084C152.599 206.386 152.58 206.687 152.561 206.989C150.351 206.989 148.141 206.989 145.931 206.989C145.582 206.989 145.407 207.261 145.407 207.532C145.406 207.802 145.58 208.07 145.925 208.074L145.931 208.075C148.311 208.075 150.69 208.075 153.07 208.075C153.377 208.075 153.594 207.826 153.613 207.532C153.825 204.179 154.036 200.825 154.248 197.471C154.278 196.992 154.308 196.514 154.339 196.035L154.339 196.022C154.361 195.673 154.101 195.499 153.829 195.5C153.557 195.5 153.275 195.674 153.253 196.022Z" fill="#F4E5FF"/>
<path d="M151.748 35.4044C154.718 49.264 163.401 48.6744 167.046 47.7583C166.334 45.4199 166.554 42.9327 167.59 40.7964C158.832 25.4288 148.018 25.9402 131.155 35.8573C119.978 42.4313 116.505 49.598 118.042 56.7073V56.7079C136.978 58.1765 151.748 35.4044 151.748 35.4044Z" fill="#1A032D"/>
<path d="M174.097 42.0083C174.963 41.4015 176.044 41.3777 177.006 41.7228L176.862 41.8668C175.681 43.3997 175.349 45.5432 175.988 47.3667C176.085 47.6433 176.36 47.8275 176.656 47.7459C176.925 47.6722 177.133 47.356 177.036 47.078C176.48 45.4927 176.776 43.7434 177.799 42.415C177.858 42.3388 177.873 42.247 177.87 42.1535C179.083 42.9485 179.851 44.2617 180.462 45.5402C180.764 46.1706 181.7 45.6201 181.4 44.992C180.67 43.467 179.693 41.9325 178.189 41.0713C176.788 40.2692 174.916 40.1127 173.549 41.0703C172.98 41.4684 173.523 42.4105 174.097 42.0083Z" fill="#8A2121"/>
<path d="M198.098 151.945C198.334 152.095 198.648 152.083 198.791 151.755C204.263 139.117 198.684 124.73 192.776 113.301C192.455 112.68 191.518 113.229 191.839 113.849C197.527 124.853 203.13 138.956 197.869 151.165L197.853 151.206C197.719 151.515 197.874 151.803 198.098 151.945Z" fill="#F4E5FF"/>
<path d="M213.487 175.911C211.581 178.003 209.507 179.934 207.288 181.69C207.078 181.856 207.099 182.191 207.247 182.395L207.288 182.458C207.405 182.575 207.543 182.618 207.682 182.609C207.813 182.601 207.944 182.547 208.056 182.458C210.165 180.789 212.138 178.957 213.966 176.984C214.061 176.881 214.161 176.783 214.255 176.679C214.493 176.419 214.414 176.094 214.218 175.903C214.025 175.715 213.721 175.655 213.487 175.911Z" fill="#F4E5FF"/>
</svg>
