<svg width="20" height="16" viewBox="0 0 20 16" fill="none" xmlns="http://www.w3.org/2000/svg">
<path d="M8.72559 10.458H11.2832C11.8809 10.458 12.1797 10.1621 12.1797 9.57031V8.90234C12.9941 8.84961 13.8057 8.75879 14.6143 8.62988C15.4287 8.49512 16.2432 8.31934 17.0576 8.10254C17.8779 7.88574 18.707 7.61914 19.5449 7.30273V6.05469C18.5254 6.5 17.4971 6.85449 16.46 7.11816C15.4287 7.38184 14.377 7.57227 13.3047 7.68945C12.2324 7.80664 11.1309 7.86523 10 7.86523C8.86914 7.86523 7.76758 7.80664 6.69531 7.68945C5.62891 7.57227 4.57715 7.38184 3.54004 7.11816C2.50879 6.85449 1.4834 6.5 0.463867 6.05469V7.30273C1.2959 7.61914 2.11914 7.88574 2.93359 8.10254C3.75391 8.31934 4.57129 8.49512 5.38574 8.62988C6.2002 8.75879 7.01172 8.84961 7.82031 8.90234V9.57031C7.82031 10.1621 8.12207 10.458 8.72559 10.458ZM2.95117 16.0039C2.125 16.0039 1.50391 15.7988 1.08789 15.3887C0.671875 14.9844 0.463867 14.3691 0.463867 13.543V5.41309C0.463867 4.58691 0.671875 3.97168 1.08789 3.56738C1.50391 3.15723 2.125 2.95215 2.95117 2.95215H17.0488C17.8809 2.95215 18.5049 3.15723 18.9209 3.56738C19.3369 3.97168 19.5449 4.58691 19.5449 5.41309V13.543C19.5449 14.3691 19.3369 14.9844 18.9209 15.3887C18.5049 15.7988 17.8809 16.0039 17.0488 16.0039H2.95117ZM5.83398 3.61133V2.1875C5.83398 1.44922 6.03613 0.901367 6.44043 0.543945C6.84473 0.186523 7.38965 0.0078125 8.0752 0.0078125H11.9336C12.6484 0.0078125 13.1992 0.186523 13.5859 0.543945C13.9727 0.901367 14.166 1.44922 14.166 2.1875V3.60254H12.9971V2.1084C12.9971 1.79199 12.9033 1.54883 12.7158 1.37891C12.5342 1.20312 12.2793 1.11523 11.9512 1.11523H8.05762C7.72363 1.11523 7.46582 1.20312 7.28418 1.37891C7.10254 1.54883 7.01172 1.79199 7.01172 2.1084V3.61133H5.83398Z" fill="#F4E5FF"/>
</svg>
