<svg width="25" height="23" viewBox="0 0 25 23" fill="none" xmlns="http://www.w3.org/2000/svg">
<path d="M23.9565 11.3155L13.0959 0.462747C13.0177 0.384394 12.9248 0.322233 12.8225 0.27982C12.7203 0.237407 12.6107 0.215576 12.5 0.215576C12.3893 0.215576 12.2797 0.237407 12.1774 0.27982C12.0752 0.322233 11.9823 0.384394 11.9041 0.462747L1.04343 11.3155C0.727026 11.6319 0.547729 12.0617 0.547729 12.5099C0.547729 13.4407 1.30447 14.1974 2.23523 14.1974H3.37957V21.9415C3.37957 22.4082 3.75662 22.7852 4.22332 22.7852H10.8125V16.879H13.7656V22.7852H20.7766C21.2433 22.7852 21.6204 22.4082 21.6204 21.9415V14.1974H22.7647C23.213 14.1974 23.6427 14.0208 23.9592 13.7017C24.6157 13.0425 24.6157 11.9747 23.9565 11.3155Z" fill="#737EE5"/>
</svg>
