<svg width="19" height="20" viewBox="0 0 19 20" fill="none" xmlns="http://www.w3.org/2000/svg">
<rect y="0.5" width="19" height="19" rx="9.5" fill="#F4E5FF"/>
<path d="M11.125 7.8125H12.405C12.4824 7.81258 12.5571 7.84139 12.6145 7.89335C12.6719 7.94531 12.7079 8.01672 12.7157 8.09375L12.9063 10H12.2775L12.1213 8.4375H11.125V9.375C11.125 9.45788 11.0921 9.53737 11.0335 9.59597C10.9749 9.65458 10.8954 9.6875 10.8125 9.6875C10.7296 9.6875 10.6502 9.65458 10.5916 9.59597C10.533 9.53737 10.5 9.45788 10.5 9.375V8.4375H8.00003V9.375C8.00003 9.45788 7.9671 9.53737 7.9085 9.59597C7.84989 9.65458 7.77041 9.6875 7.68753 9.6875C7.60465 9.6875 7.52516 9.65458 7.46656 9.59597C7.40795 9.53737 7.37503 9.45788 7.37503 9.375V8.4375H6.37815L5.87815 13.4375H9.25003V14.0625H5.53253C5.48888 14.0625 5.44573 14.0533 5.40585 14.0355C5.36596 14.0178 5.33024 13.9919 5.30098 13.9595C5.27171 13.9271 5.24956 13.889 5.23594 13.8475C5.22232 13.806 5.21754 13.7622 5.2219 13.7188L5.7844 8.09375C5.79214 8.01672 5.8282 7.94531 5.88559 7.89335C5.94298 7.84139 6.01761 7.81258 6.09503 7.8125H7.37503V7.59438C7.37503 6.51063 8.21003 5.625 9.25003 5.625C10.29 5.625 11.125 6.51063 11.125 7.59438V7.81312V7.8125ZM10.5 7.8125V7.59438C10.5 6.84812 9.93628 6.25 9.25003 6.25C8.56378 6.25 8.00003 6.84812 8.00003 7.59438V7.81312H10.5V7.8125ZM12.4669 12.5375L11.75 11.8212V14.0625C11.75 14.1454 11.7171 14.2249 11.6585 14.2835C11.5999 14.3421 11.5204 14.375 11.4375 14.375C11.3546 14.375 11.2752 14.3421 11.2166 14.2835C11.158 14.2249 11.125 14.1454 11.125 14.0625V11.8212L10.4088 12.5375C10.38 12.5673 10.3455 12.5912 10.3073 12.6075C10.2692 12.6239 10.2282 12.6325 10.1867 12.6329C10.1452 12.6333 10.1041 12.6253 10.0657 12.6096C10.0273 12.5939 9.99237 12.5707 9.96303 12.5414C9.93369 12.512 9.91048 12.4771 9.89477 12.4387C9.87906 12.4003 9.87115 12.3592 9.87151 12.3177C9.87187 12.2762 9.88049 12.2352 9.89687 12.1971C9.91325 12.1589 9.93706 12.1245 9.9669 12.0956L11.2169 10.8456C11.2755 10.787 11.355 10.7541 11.4378 10.7541C11.5207 10.7541 11.6002 10.787 11.6588 10.8456L12.9088 12.0956C12.9386 12.1245 12.9624 12.1589 12.9788 12.1971C12.9952 12.2352 13.0038 12.2762 13.0042 12.3177C13.0045 12.3592 12.9966 12.4003 12.9809 12.4387C12.9652 12.4771 12.942 12.512 12.9127 12.5414C12.8833 12.5707 12.8484 12.5939 12.81 12.6096C12.7716 12.6253 12.7305 12.6333 12.689 12.6329C12.6475 12.6325 12.6065 12.6239 12.5683 12.6075C12.5302 12.5912 12.4957 12.5673 12.4669 12.5375Z" fill="#2D0E46"/>
</svg>
