<svg width="31" height="33" viewBox="0 0 31 33" fill="none" xmlns="http://www.w3.org/2000/svg">
<path d="M15.5188 12.0183V8.65106H14.1366C13.9868 8.07652 13.7599 7.52744 13.4612 7.0146L14.4369 6.03854L12.0562 3.65649L11.0801 4.63288C10.5689 4.33484 10.0189 4.10796 9.44367 3.95747V2.57498H6.07576V3.95747C5.50089 4.10796 4.95083 4.33516 4.4393 4.6332L3.46323 3.65649L1.08216 6.03854L2.05822 7.0146C1.76018 7.52549 1.53363 8.07522 1.38314 8.65106H0V12.0183H1.38281C1.53298 12.5932 1.76018 13.1429 2.05822 13.6544L1.08216 14.6305L3.46323 17.0113L4.4393 16.0359C4.95018 16.3336 5.49991 16.5611 6.07576 16.7119V18.0934H9.44334V16.7119C10.0179 16.5614 10.5679 16.3342 11.0798 16.0359L12.0559 17.0113L14.4366 14.6305L13.4609 13.6551C13.7589 13.1436 13.9858 12.5938 14.1366 12.0183H15.5188ZM12.1936 11.2966H11.404C11.3181 11.6259 11.1882 11.9396 11.0178 12.2318L11.5753 12.7894L10.2147 14.1503L9.65683 13.5931C9.36401 13.7635 9.04998 13.8931 8.72158 13.9789V14.7689H6.79687V13.9789C6.46781 13.8928 6.15378 13.7628 5.86194 13.5931L5.30405 14.1503L3.9431 12.7894L4.50099 12.2318C4.33092 11.939 4.20067 11.6253 4.11481 11.2966H3.32449V9.37218H4.11481C4.20099 9.0428 4.33059 8.72908 4.50067 8.43692L3.94278 7.87903L5.30372 6.51776L5.86161 7.0763C6.1541 6.90557 6.46814 6.77597 6.79654 6.68979V5.8998H8.72125V6.68979C9.04998 6.77597 9.36434 6.9059 9.65651 7.0763L10.2144 6.51808L11.575 7.87935L11.0174 8.43724C11.1879 8.72973 11.3178 9.04377 11.4036 9.3725H12.1933L12.1936 11.2966Z" fill="#5EE8EF"/>
<path d="M30.9999 8.65727V5.5701H29.7327C29.5956 5.04354 29.3876 4.54017 29.1138 4.07009L30.0079 3.17498L27.8253 0.991732L26.9305 1.88651C26.4617 1.6136 25.958 1.40534 25.4302 1.26758V0H22.3427V1.26758C21.8155 1.40534 21.3118 1.6136 20.8427 1.88716L19.9479 0.991732L17.7646 3.17498L18.6597 4.07009C18.3868 4.53821 18.1789 5.04224 18.0408 5.5701H16.7726V8.65727H18.0402C18.1782 9.18415 18.3865 9.6885 18.6597 10.1573L17.7646 11.0521L19.9479 13.2347L20.8427 12.3405C21.3114 12.6131 21.8151 12.8214 22.3427 12.9598V14.2274H25.4302V12.9598C25.9571 12.8224 26.4611 12.6141 26.9305 12.3405L27.8253 13.2347L30.0079 11.0521L29.1138 10.1576C29.387 9.68915 29.5949 9.1848 29.733 8.65727H30.9999ZM27.9519 7.99557H27.2282C27.1496 8.2972 27.0304 8.58512 26.874 8.85378L27.3852 9.36467L26.1382 10.6117L25.6267 10.1014C25.3584 10.2572 25.0701 10.3763 24.7691 10.4547V11.179H23.005V10.4547C22.7031 10.3757 22.4155 10.2565 22.1478 10.1014L21.6366 10.6117L20.3886 9.36467L20.8998 8.85378C20.7434 8.58479 20.6246 8.2972 20.5466 7.99557H19.8216V6.23179H20.5466C20.6253 5.93016 20.7441 5.64224 20.8998 5.37423L20.3886 4.86269L21.6366 3.61503L22.1478 4.12689C22.4155 3.97053 22.7041 3.85137 23.005 3.7727V3.04832H24.7691V3.7727C25.0708 3.8517 25.3587 3.97053 25.6267 4.12689L26.1382 3.61535L27.3852 4.86302L26.874 5.37456C27.0304 5.64289 27.1496 5.93147 27.2279 6.23212H27.9519V7.99557Z" fill="#737EE5"/>
<path d="M26.734 26.3178V22.9505H25.3519C25.202 22.3763 24.9748 21.8269 24.6765 21.3141L25.6522 20.3383L23.2714 17.9566L22.2954 18.9327C21.7842 18.6353 21.2344 18.4081 20.6589 18.2573V16.8748H17.291V18.2573C16.7161 18.4081 16.1664 18.6353 15.6549 18.933L14.6788 17.9566L12.2974 20.3383L13.2738 21.3141C12.9758 21.825 12.7489 22.375 12.5987 22.9505H11.2156V26.3178H12.5984C12.7486 26.8927 12.9758 27.4427 13.2741 27.9546L12.2977 28.9306L14.6791 31.3111L15.6552 30.336C16.1661 30.633 16.7158 30.8606 17.2913 31.0114V32.3932H20.6592V31.0114C21.2338 30.8609 21.7835 30.6337 22.2957 30.336L23.2718 31.3111L25.6525 28.9306L24.6768 27.9549C24.9745 27.4434 25.2017 26.8933 25.3525 26.3178H26.734ZM23.4092 25.5967H22.6192C22.533 25.9254 22.4034 26.2394 22.2327 26.5319L22.7906 27.0895L21.4303 28.4501L20.8724 27.8929C20.5799 28.0633 20.2656 28.1929 19.9372 28.2787V29.0684H18.0124V28.2787C17.6834 28.1926 17.3694 28.063 17.0775 27.8929L16.5193 28.4501L15.1584 27.0895L15.7162 26.5319C15.5462 26.2391 15.4162 25.9251 15.3301 25.5967H14.5397V23.672H15.3301C15.4162 23.3429 15.5458 23.0286 15.7159 22.7367L15.158 22.1785L16.519 20.8172L17.0772 21.3761C17.3694 21.2057 17.6837 21.0751 18.0121 20.9893V20.1996H19.9368V20.9893C20.2659 21.0754 20.5802 21.2057 20.8721 21.3761L21.43 20.8176L22.7903 22.1788L22.2324 22.737C22.4031 23.0295 22.5327 23.3436 22.6186 23.6723H23.4085V25.5967H23.4092Z" fill="#11BCCE"/>
</svg>
