<svg width="20" height="29" viewBox="0 0 20 29" fill="none" xmlns="http://www.w3.org/2000/svg">
<path d="M18.6574 9.23458C18.5826 8.18797 17.7117 7.37707 16.6625 7.37707H15.9837V4.75845C15.9837 2.13453 13.849 0 11.2252 0H8.77494C6.15117 0 4.01649 2.13468 4.01649 4.75845V7.37707H3.26309C2.21078 7.37707 1.33846 8.19252 1.26763 9.24245L0.144005 25.8982C0.0660914 27.0531 0.981914 28.0328 2.13947 28.0328H9.99993H17.8521C19.0127 28.0328 19.9297 27.0481 19.847 25.8903L18.6574 9.23458ZM5.98375 4.75845C5.98375 3.21937 7.23586 1.96725 8.77494 1.96725H11.2252C12.7643 1.96725 14.0164 3.21937 14.0164 4.75845V7.37707H10.0001H5.98375V4.75845Z" fill="#737EE5"/>
</svg>
